<svg width="5262" height="500" viewBox="0 0 5262 500" fill="none" xmlns="http://www.w3.org/2000/svg">
<g clip-path="url(#clip0_360_17)">
<path d="M976.024 492.482H731.377V5.00977H976.024V492.482ZM489.495 42.3149C489.495 42.3149 459.916 101.892 454.941 106.903C449.965 114.42 447.477 114.42 440.013 111.914C432.549 106.903 407.946 94.375 407.946 94.375C407.946 94.375 430.061 191.257 430.061 198.774C432.549 206.29 425.085 213.807 415.134 206.29C412.646 203.785 370.627 156.457 370.627 156.457C370.627 156.457 360.676 178.729 358.188 183.74C355.7 188.751 353.212 191.257 348.236 188.751C340.772 186.246 301.242 178.729 301.242 178.729C301.242 178.729 316.169 226.057 318.657 233.573C321.145 238.584 323.633 243.595 313.681 248.607L298.754 253.618C298.754 253.618 380.303 325.722 382.791 328.228C387.766 333.239 390.254 333.239 387.766 345.767C382.791 358.295 380.303 373.05 380.303 373.05C380.303 373.05 456.876 355.511 464.339 355.511C471.803 355.511 479.267 358.016 479.267 365.533C479.267 373.05 474.291 457.682 474.291 457.682H498.894C498.894 457.682 493.918 375.555 493.918 365.533C493.918 358.016 501.382 355.511 508.846 355.511C516.31 358.016 592.883 373.05 592.883 373.05C592.883 373.05 587.907 355.511 585.419 345.767C580.443 333.239 585.419 330.734 590.395 328.228C592.883 325.722 674.431 253.618 674.431 253.618L659.504 248.607C652.04 243.595 654.528 238.584 654.528 233.573C657.016 228.562 671.943 178.729 671.943 178.729C671.943 178.729 632.413 186.246 624.949 188.751C619.973 191.257 617.485 186.246 614.998 183.74C612.51 178.729 602.558 156.457 602.558 156.457C602.558 156.457 560.539 206.29 558.052 206.29C550.588 211.301 540.636 206.29 543.124 198.774C543.124 191.257 565.239 94.375 565.239 94.375C565.239 94.375 540.636 109.408 533.172 111.914C528.196 116.925 523.221 116.925 518.245 106.903C519.074 99.3862 489.495 42.3149 489.495 42.3149ZM245.125 492.482V5.00977H0.478516V492.482H245.125Z" fill="white"/>
<path d="M3873.35 204.065H3851.23L3846.26 181.793C3826.63 204.065 3811.7 209.076 3787.1 209.076C3727.94 209.076 3693.11 161.748 3693.11 104.677C3693.11 47.6058 3727.67 0.278396 3787.1 0.278396C3831.61 0.278396 3866.16 22.5501 3871.14 67.3719H3836.58C3834.09 40.0891 3809.49 27.5612 3784.61 27.5612C3742.59 27.5612 3725.45 64.8664 3725.45 104.677C3725.45 144.488 3742.87 181.793 3784.61 181.793C3819.17 181.793 3839.07 162.027 3841.28 126.949H3789.31V99.6659H3873.35V204.065V204.065ZM3900.44 131.96C3900.44 87.1381 3927.53 54.8441 3972.04 54.8441C4016.54 54.8441 4043.63 87.1381 4043.63 131.96C4043.63 176.782 4016.54 209.076 3972.04 209.076C3927.53 209.076 3900.44 176.503 3900.44 131.96ZM4014.05 131.96C4014.05 107.183 4001.62 82.1269 3972.04 82.1269C3944.95 82.1269 3930.02 106.904 3930.02 131.96C3930.02 157.016 3942.46 184.298 3972.04 184.298C4001.62 184.298 4014.05 156.737 4014.05 131.96ZM4058.56 59.5768H4093.12L4130.16 171.492L4164.71 59.5768H4196.78L4144.81 203.786H4110.25L4058.56 59.5768ZM4241.29 139.198C4241.29 161.47 4253.73 181.514 4280.82 181.514C4298.23 181.514 4310.4 173.998 4315.37 156.737H4344.95C4337.49 189.031 4310.4 206.57 4280.82 206.57C4236.31 206.57 4211.71 174.276 4211.71 129.454C4211.71 87.1381 4238.8 52.3385 4280.82 52.3385C4325.32 52.3385 4354.9 94.6548 4347.44 136.971H4241.29V139.198ZM4315.37 119.432C4315.37 99.6659 4300.44 82.1269 4278.33 82.1269C4256.21 82.1269 4241.29 99.6659 4241.29 119.432H4315.37ZM4372.04 59.5768H4401.62V86.8597C4404.11 71.8263 4423.73 54.5657 4443.64 54.5657C4451.1 54.5657 4453.59 54.5657 4456.08 54.5657V84.3541C4451.1 84.3541 4446.13 81.8485 4441.15 81.8485C4419.04 81.8485 4401.62 99.3875 4401.62 131.682V201.281H4372.04V59.5768ZM4473.49 59.5768H4503.07V81.8485C4513.02 66.8151 4527.67 57.0713 4547.58 57.0713C4579.64 57.0713 4599.55 74.6102 4599.55 106.904V206.292H4569.97V114.421C4569.97 92.1492 4560.02 82.1269 4542.88 82.1269C4520.76 82.1269 4508.32 99.6659 4508.32 119.432V204.065H4475.98V59.5768H4473.49ZM4633.83 59.5768H4663.4V79.343C4673.36 64.3096 4685.52 54.5657 4707.91 54.5657C4725.33 54.5657 4742.47 62.0824 4747.44 79.343C4757.39 64.3096 4772.04 54.5657 4791.95 54.5657C4821.53 54.5657 4838.94 67.0935 4838.94 104.399V203.786H4806.88V119.432C4806.88 97.1604 4804.39 79.6214 4779.79 79.6214C4757.67 79.6214 4750.21 94.6548 4750.21 119.432V204.065H4718.14V111.915C4718.14 92.1492 4713.16 82.1269 4693.54 82.1269C4676.12 82.1269 4661.47 94.6548 4661.47 119.432V206.57H4629.4V59.5768H4633.83ZM4900.59 139.198C4900.59 161.47 4913.03 181.514 4940.12 181.514C4957.53 181.514 4969.7 173.998 4974.67 156.737H5004.25C4996.79 189.031 4969.7 206.57 4940.12 206.57C4895.61 206.57 4871.01 174.276 4871.01 129.454C4871.01 87.1381 4898.1 52.3385 4940.12 52.3385C4984.62 52.3385 5014.2 94.6548 5006.74 136.971H4900.59V139.198ZM4974.67 119.432C4974.67 99.6659 4959.75 82.1269 4937.63 82.1269C4915.52 82.1269 4900.59 99.6659 4900.59 119.432H4974.67ZM5029.13 59.5768H5058.71V81.8485C5068.66 66.8151 5083.31 57.0713 5103.22 57.0713C5135.28 57.0713 5155.19 74.6102 5155.19 106.904V206.292H5122.84V114.421C5122.84 92.1492 5112.89 82.1269 5095.75 82.1269C5073.64 82.1269 5061.2 99.6659 5061.2 119.432V204.065H5029.13V59.5768V59.5768ZM5174.81 59.5768H5199.42V17.539H5231.48V59.8552H5261.06V84.6325H5231.48V161.748C5231.48 174.276 5231.48 181.514 5246.41 181.514C5251.39 181.514 5256.36 181.514 5258.85 181.514V206.292C5251.39 206.292 5243.92 208.797 5239.22 208.797C5207.16 208.797 5199.69 196.269 5199.69 171.492V84.6325H5175.09V59.5768H5174.81ZM3690.35 420.379C3690.35 375.557 3717.44 343.263 3761.94 343.263C3806.45 343.263 3833.54 375.557 3833.54 420.379C3833.54 465.2 3806.45 497.494 3761.94 497.494C3717.71 497.494 3690.35 465.2 3690.35 420.379ZM3803.96 420.379C3803.96 395.601 3791.52 370.546 3761.94 370.546C3734.85 370.546 3719.93 395.323 3719.93 420.379C3719.93 445.156 3732.37 472.717 3761.94 472.717C3791.52 472.717 3803.96 445.156 3803.96 420.379ZM3845.98 348.274H3870.58V335.746C3870.58 298.441 3890.21 293.43 3910.11 293.43C3920.07 293.43 3927.53 293.43 3932.23 295.935V320.713C3927.25 320.713 3924.77 318.207 3917.3 318.207C3909.84 318.207 3902.37 320.713 3902.37 333.241V348.274H3929.47V373.051H3902.37V494.989H3870.31V373.051H3845.7V348.274H3845.98ZM4164.71 355.791C4159.74 333.519 4145.09 315.98 4115.23 315.98C4073.21 315.98 4056.07 353.285 4056.07 393.096C4056.07 432.906 4073.49 470.212 4115.23 470.212C4144.81 470.212 4162.23 447.94 4164.71 417.873H4199.27C4196.78 465.2 4162.23 500 4115.23 500C4056.07 500 4021.24 452.673 4021.24 395.601C4021.24 338.53 4055.8 291.203 4115.23 291.203C4159.74 291.203 4194.29 315.98 4199.27 358.296H4164.71V355.791ZM4347.44 460.189C4347.44 467.706 4349.93 470.212 4354.9 470.212C4357.39 470.212 4359.88 470.212 4362.37 470.212V492.483C4357.39 494.989 4347.44 494.989 4342.74 494.989C4330.3 494.989 4320.62 489.978 4318.14 477.45C4305.7 489.978 4286.07 494.989 4268.65 494.989C4244.05 494.989 4219.17 479.955 4219.17 452.673C4219.17 415.367 4248.75 410.356 4273.63 407.851C4295.74 402.84 4315.65 405.345 4315.65 388.085C4315.65 370.546 4298.23 368.318 4286.07 368.318C4268.65 368.318 4256.49 375.835 4254 390.59H4224.42C4226.91 353.285 4258.98 343.263 4288.56 343.263C4315.65 343.263 4345.23 355.791 4345.23 385.579L4347.44 460.189ZM4315.37 420.379C4305.42 427.895 4290.77 425.39 4275.84 427.895C4260.91 430.401 4251.24 435.412 4251.24 452.673C4251.24 467.706 4268.65 470.212 4280.82 470.212C4295.74 470.212 4315.37 462.695 4315.37 442.929V420.379ZM4381.99 348.274H4411.57V370.546C4421.52 355.512 4436.17 345.768 4456.08 345.768C4488.14 345.768 4508.05 363.307 4508.05 395.601V494.989H4475.98V402.84C4475.98 380.568 4466.03 370.546 4448.89 370.546C4426.77 370.546 4414.34 388.085 4414.34 407.851V492.483H4381.99V348.274ZM4656.22 460.189C4656.22 467.706 4658.71 470.212 4663.68 470.212C4666.17 470.212 4668.66 470.212 4671.15 470.212V492.483C4666.17 494.989 4656.22 494.989 4651.52 494.989C4639.08 494.989 4629.4 489.978 4626.92 477.45C4614.48 489.978 4594.85 494.989 4577.43 494.989C4552.83 494.989 4527.95 479.955 4527.95 452.673C4527.95 415.367 4557.53 410.356 4582.41 407.851C4604.52 402.84 4624.43 405.345 4624.43 388.085C4624.43 370.546 4607.01 368.318 4594.85 368.318C4577.43 368.318 4565.27 375.835 4562.78 390.59H4530.72C4533.2 353.285 4565.27 343.263 4594.85 343.263C4621.94 343.263 4651.52 355.791 4651.52 385.579V460.189H4656.22ZM4626.64 420.379C4616.69 427.895 4602.04 425.39 4587.11 427.895C4572.18 430.401 4562.51 435.412 4562.51 452.673C4562.51 467.706 4579.92 470.212 4592.08 470.212C4607.01 470.212 4626.64 462.695 4626.64 442.929V420.379ZM4826.5 492.483H4796.92V472.717C4789.46 490.256 4769.83 494.989 4752.42 494.989C4707.91 494.989 4685.8 460.189 4685.8 417.873C4685.8 365.535 4717.86 343.263 4747.44 343.263C4764.86 343.263 4784.48 350.779 4794.44 365.535V290.924H4826.5V492.483ZM4754.91 472.717C4784.48 472.717 4794.44 447.94 4794.44 420.379C4794.44 388.085 4779.51 370.546 4754.91 370.546C4725.33 370.546 4715.38 397.828 4715.38 422.884C4715.38 447.94 4727.81 472.717 4754.91 472.717ZM4982.14 460.189C4982.14 467.706 4984.62 470.212 4989.6 470.212C4992.09 470.212 4994.58 470.212 4997.06 470.212V492.483C4992.09 494.989 4982.14 494.989 4977.44 494.989C4965 494.989 4955.32 489.978 4952.83 477.45C4940.39 489.978 4920.77 494.989 4903.35 494.989C4878.75 494.989 4853.87 479.955 4853.87 452.673C4853.87 415.367 4883.45 410.356 4908.33 407.851C4930.44 402.84 4950.35 405.345 4950.35 388.085C4950.35 370.546 4932.93 368.318 4920.77 368.318C4903.35 368.318 4891.19 375.835 4888.7 390.59H4856.63C4859.12 353.285 4891.19 343.263 4920.77 343.263C4947.86 343.263 4977.44 355.791 4977.44 385.579V460.189H4982.14ZM4950.07 420.379C4940.12 427.895 4925.47 425.39 4910.54 427.895C4895.61 430.401 4885.94 435.412 4885.94 452.673C4885.94 467.706 4903.35 470.212 4915.52 470.212C4930.44 470.212 4950.07 462.695 4950.07 442.929V420.379ZM1581.13 204.065H1559.02L1554.04 181.793C1534.42 204.065 1519.49 209.076 1494.89 209.076C1435.73 209.076 1400.9 161.748 1400.9 104.677C1400.9 47.6058 1435.45 0 1494.61 0C1539.12 0 1573.67 22.2717 1578.65 67.0935H1544.09C1541.6 39.8107 1517 27.2828 1492.12 27.2828C1450.1 27.2828 1432.96 64.588 1432.96 104.399C1432.96 141.704 1450.38 181.514 1492.12 181.514C1526.68 181.514 1546.58 161.748 1548.79 126.67H1496.82V99.3875H1580.86V204.065H1581.13ZM1608.23 131.96C1608.23 87.1381 1635.32 54.8441 1679.82 54.8441C1724.33 54.8441 1753.91 87.1381 1753.91 131.96C1753.91 176.782 1726.82 209.076 1682.31 209.076C1637.8 209.076 1608.23 176.503 1608.23 131.96ZM1721.84 131.96C1721.84 107.183 1709.4 82.1269 1679.82 82.1269C1652.73 82.1269 1637.8 106.904 1637.8 131.96C1637.8 157.016 1650.24 184.298 1679.82 184.298C1709.4 184.298 1721.84 156.737 1721.84 131.96ZM1907.33 204.065H1875.26V184.298C1867.8 199.332 1850.66 209.076 1833.24 209.076C1796.2 209.076 1778.79 189.31 1778.79 152.004V59.5768H1810.85V149.22C1810.85 173.998 1820.81 184.02 1837.94 184.02C1865.04 184.02 1872.5 166.481 1872.5 144.209V59.5768H1904.57V203.786L1907.33 204.065ZM1924.47 59.5768H1959.02L1996.07 171.492L2030.62 59.5768H2062.69L2010.72 203.786H1976.16L1924.47 59.5768ZM2102.22 139.198C2102.22 161.47 2114.66 181.514 2141.75 181.514C2159.16 181.514 2171.33 173.998 2176.3 156.737H2205.88C2198.42 189.031 2171.33 206.57 2141.75 206.57C2097.24 206.57 2072.64 174.276 2072.64 129.454C2072.64 87.1381 2099.73 52.3385 2141.75 52.3385C2186.25 52.3385 2215.83 94.6548 2208.37 136.971H2102.22V139.198ZM2176.3 119.432C2176.3 99.6659 2161.38 82.1269 2139.26 82.1269C2117.15 82.1269 2102.22 99.6659 2102.22 119.432H2176.3ZM2233.25 59.5768H2262.83V86.8597C2265.32 71.8263 2284.94 54.5657 2304.85 54.5657C2312.31 54.5657 2314.8 54.5657 2317.29 54.5657V84.3541C2312.31 84.3541 2307.33 81.8485 2302.36 81.8485C2280.24 81.8485 2262.83 99.3875 2262.83 131.682V201.281H2230.76V59.5768H2233.25ZM2334.42 59.5768H2364V81.8485C2373.96 66.8151 2388.61 57.0713 2408.51 57.0713C2440.58 57.0713 2460.48 74.6102 2460.48 106.904V206.292H2428.41V114.421C2428.41 92.1492 2418.46 82.1269 2401.32 82.1269C2379.21 82.1269 2366.77 99.6659 2366.77 119.432V204.065H2334.7L2334.42 59.5768ZM2517.15 139.198C2517.15 161.47 2529.59 181.514 2556.68 181.514C2574.1 181.514 2586.26 173.998 2591.23 156.737H2621.09C2613.63 189.031 2586.54 206.57 2556.96 206.57C2512.45 206.57 2487.85 174.276 2487.85 129.454C2487.85 87.1381 2514.94 52.3385 2556.96 52.3385C2601.46 52.3385 2631.04 94.6548 2623.58 136.971H2517.43L2517.15 139.198ZM2591.23 119.432C2591.23 99.6659 2576.31 82.1269 2554.19 82.1269C2532.08 82.1269 2517.15 99.6659 2517.15 119.432H2591.23ZM2648.18 59.5768H2677.76V79.343C2687.71 64.3096 2699.87 54.5657 2722.27 54.5657C2739.68 54.5657 2756.82 62.0824 2761.8 79.343C2771.75 64.3096 2786.4 54.5657 2806.3 54.5657C2835.88 54.5657 2853.3 67.0935 2853.3 104.399V203.786H2821.23V119.432C2821.23 97.1604 2818.74 79.6214 2794.14 79.6214C2772.02 79.6214 2764.56 94.6548 2764.56 119.432V204.065H2732.49V111.915C2732.49 92.1492 2727.52 82.1269 2707.89 82.1269C2690.48 82.1269 2675.82 94.6548 2675.82 119.432V206.57H2643.2V59.5768H2648.18ZM2914.94 139.198C2914.94 161.47 2927.38 181.514 2954.47 181.514C2971.89 181.514 2984.05 173.998 2989.03 156.737H3018.61C3011.14 189.031 2984.05 206.57 2954.47 206.57C2909.97 206.57 2885.36 174.276 2885.36 129.454C2885.36 87.1381 2912.45 52.3385 2954.47 52.3385C2998.98 52.3385 3028.56 94.6548 3021.09 136.971H2914.94V139.198V139.198ZM2989.03 119.432C2989.03 99.6659 2974.1 82.1269 2951.98 82.1269C2929.87 82.1269 2914.94 99.6659 2914.94 119.432H2989.03ZM3045.7 59.5768H3075.28V81.8485C3085.23 66.8151 3099.88 57.0713 3119.78 57.0713C3151.85 57.0713 3171.75 74.6102 3171.75 106.904V206.292H3139.69V114.421C3139.69 92.1492 3129.73 82.1269 3112.59 82.1269C3090.48 82.1269 3078.04 99.6659 3078.04 119.432V204.065H3045.97L3045.7 59.5768ZM3189.17 59.5768H3213.77V17.539H3245.84V59.8552H3275.42V84.6325H3245.84V161.748C3245.84 174.276 3245.84 181.514 3260.76 181.514C3265.74 181.514 3270.72 181.514 3273.2 181.514V206.292C3265.74 206.292 3258.28 208.797 3253.58 208.797C3221.51 208.797 3214.05 196.269 3214.05 171.492V84.6325H3189.44V59.5768H3189.17ZM1539.12 492.483H1509.54V472.717C1499.59 490.256 1482.45 497.494 1462.54 497.494C1418.04 497.494 1395.92 462.695 1395.92 420.379C1395.92 368.04 1425.5 345.768 1457.57 345.768C1474.98 345.768 1494.61 353.285 1504.56 368.04V293.43H1536.63L1539.12 492.483ZM1467.52 472.717C1494.61 472.717 1507.05 447.94 1507.05 420.379C1507.05 388.085 1492.12 370.546 1467.52 370.546C1437.94 370.546 1427.99 397.828 1427.99 422.884C1427.99 447.94 1440.43 472.717 1467.52 472.717ZM1699.73 492.483H1667.66V472.717C1660.2 487.751 1643.06 497.494 1625.64 497.494C1588.6 497.494 1571.18 477.728 1571.18 440.423V348.274H1603.25V437.918C1603.25 462.695 1613.2 472.717 1630.34 472.717C1657.43 472.717 1664.89 455.178 1664.89 432.906V348.274H1696.96L1699.73 492.483ZM1946.86 355.791C1941.88 333.519 1927.23 315.98 1897.38 315.98C1855.36 315.98 1838.22 353.285 1838.22 393.096C1838.22 430.401 1855.64 470.212 1897.38 470.212C1926.96 470.212 1944.37 447.94 1946.86 417.873H1981.41C1978.93 465.2 1944.37 500 1897.38 500C1838.22 500 1803.39 452.673 1803.39 395.601C1803.39 338.53 1837.94 291.203 1897.38 291.203C1941.88 291.203 1976.44 315.98 1981.41 358.296H1946.86V355.791ZM2129.59 460.189C2129.59 467.706 2132.07 470.212 2137.05 470.212C2139.54 470.212 2142.02 470.212 2144.51 470.212V492.483C2139.54 494.989 2129.59 497.494 2124.89 497.494C2112.45 497.494 2102.77 492.483 2100.28 479.955C2087.84 492.483 2068.22 497.494 2050.8 497.494C2026.2 497.494 2001.32 482.461 2001.32 455.178C2001.32 417.873 2030.9 412.862 2055.78 410.356C2077.89 405.345 2097.79 407.851 2097.79 390.59C2097.79 373.33 2080.38 370.824 2068.22 370.824C2050.8 370.824 2038.64 378.341 2036.15 393.096H2004.08C2006.57 355.791 2038.64 345.768 2068.22 345.768C2095.31 345.768 2124.89 358.296 2124.89 388.085V460.189H2129.59ZM2097.52 420.379C2087.57 427.895 2072.92 425.39 2057.99 427.895C2043.06 430.401 2033.39 435.412 2033.39 452.673C2033.39 467.706 2050.8 470.212 2062.96 470.212C2077.89 470.212 2097.52 462.695 2097.52 442.929V420.379V420.379ZM2164.14 348.274H2193.72V370.546C2203.67 355.512 2218.32 345.768 2238.22 345.768C2270.29 345.768 2290.19 363.307 2290.19 395.601V494.989H2258.13V402.84C2258.13 380.568 2248.18 370.546 2231.04 370.546C2208.92 370.546 2196.48 388.085 2196.48 407.851V492.483H2164.42V348.274H2164.14ZM2440.58 460.189C2440.58 467.706 2443.06 470.212 2448.04 470.212C2450.53 470.212 2453.02 470.212 2455.5 470.212V492.483C2450.53 494.989 2440.58 494.989 2435.88 494.989C2423.44 494.989 2413.76 489.978 2411.27 477.45C2398.83 489.978 2379.21 494.989 2361.79 494.989C2337.19 494.989 2312.31 479.955 2312.31 452.673C2312.31 415.367 2341.89 410.356 2366.77 407.851C2388.88 402.84 2408.79 405.345 2408.79 388.085C2408.79 370.546 2391.37 368.318 2379.21 368.318C2361.79 368.318 2349.63 375.835 2347.14 390.59H2315.07C2317.56 353.285 2349.63 343.263 2379.21 343.263C2406.3 343.263 2435.88 355.791 2435.88 385.579V460.189H2440.58ZM2408.51 420.379C2398.56 427.895 2383.91 425.39 2368.98 427.895C2354.05 430.401 2344.38 435.412 2344.38 452.673C2344.38 467.706 2361.79 470.212 2373.96 470.212C2388.88 470.212 2408.51 462.695 2408.51 442.929V420.379V420.379ZM2608.65 492.483H2579.07V472.717C2571.61 490.256 2551.98 494.989 2534.57 494.989C2490.06 494.989 2467.94 460.189 2467.94 417.873C2467.94 365.535 2497.52 343.263 2529.59 343.263C2547 343.263 2566.63 350.779 2576.58 365.535V290.924H2608.65V492.483ZM2539.54 472.717C2566.63 472.717 2579.07 447.94 2579.07 420.379C2579.07 388.085 2564.14 370.546 2539.54 370.546C2509.96 370.546 2500.01 397.828 2500.01 422.884C2500.01 447.94 2512.45 472.717 2539.54 472.717ZM2764.28 460.189C2764.28 467.706 2766.77 470.212 2771.75 470.212C2774.24 470.212 2776.72 470.212 2779.21 470.212V492.483C2774.24 494.989 2764.28 494.989 2759.58 494.989C2747.14 494.989 2737.47 489.978 2734.98 477.45C2722.54 489.978 2702.92 494.989 2685.5 494.989C2660.9 494.989 2636.02 479.955 2636.02 452.673C2636.02 415.367 2665.6 410.356 2690.48 407.851C2712.59 402.84 2732.49 405.345 2732.49 388.085C2732.49 370.546 2715.08 368.318 2702.92 368.318C2685.5 368.318 2673.34 375.835 2670.85 390.59H2638.78C2641.27 353.285 2673.34 343.263 2702.92 343.263C2730.01 343.263 2759.58 355.791 2759.58 385.579V460.189H2764.28ZM2732.22 420.379C2722.27 427.895 2707.61 425.39 2692.69 427.895C2677.76 430.401 2668.08 435.412 2668.08 452.673C2668.08 467.706 2685.5 470.212 2697.66 470.212C2712.59 470.212 2732.22 462.695 2732.22 442.929V420.379V420.379Z" fill="white"/>
</g>
<defs>
<clipPath id="clip0_360_17">
<rect width="5260.87" height="500" fill="white" transform="translate(0.478516)"/>
</clipPath>
</defs>
</svg>
