<svg width="5277" height="500" viewBox="0 0 5277 500" fill="none" xmlns="http://www.w3.org/2000/svg">
<g clip-path="url(#clip0_352_16)">
<path d="M976.24 492.481H731.419V5.00879H976.24V492.481ZM489.365 42.3139C489.365 42.3139 459.765 101.891 454.786 106.902C449.806 114.419 447.317 114.419 439.847 111.913C432.378 106.902 407.758 94.374 407.758 94.374C407.758 94.374 429.889 191.256 429.889 198.773C432.378 206.289 424.909 213.806 414.95 206.289C412.461 203.784 370.412 156.456 370.412 156.456C370.412 156.456 360.454 178.728 357.964 183.739C355.474 188.75 352.984 191.256 348.005 188.75C340.536 186.245 300.977 178.728 300.977 178.728C300.977 178.728 315.916 226.056 318.405 233.572C320.895 238.583 323.385 243.595 313.426 248.606L298.488 253.617C298.488 253.617 380.095 325.721 382.584 328.227C387.564 333.238 390.053 333.238 387.564 345.766C382.584 358.294 380.095 373.049 380.095 373.049C380.095 373.049 456.722 355.51 464.191 355.51C471.66 355.51 479.129 358.015 479.129 365.532C479.129 373.049 474.15 457.681 474.15 457.681H498.77C498.77 457.681 493.791 375.554 493.791 365.532C493.791 358.015 501.26 355.51 508.729 355.51C516.198 358.015 592.826 373.049 592.826 373.049C592.826 373.049 587.846 355.51 585.357 345.766C580.377 333.238 585.357 330.733 590.336 328.227C592.826 325.721 674.433 253.617 674.433 253.617L659.494 248.606C652.025 243.595 654.515 238.583 654.515 233.572C657.005 228.561 671.943 178.728 671.943 178.728C671.943 178.728 632.384 186.245 624.915 188.75C619.936 191.256 617.446 186.245 614.956 183.739C612.467 178.728 602.508 156.456 602.508 156.456C602.508 156.456 560.46 206.289 557.97 206.289C550.501 211.301 540.542 206.289 543.032 198.773C543.032 191.256 565.162 94.374 565.162 94.374C565.162 94.374 540.542 109.407 533.073 111.913C528.094 116.924 523.114 116.924 518.135 106.902C518.965 99.3852 489.365 42.3139 489.365 42.3139ZM244.821 492.481V5.00879H0V492.481H244.821Z" fill="white"/>
<path d="M1581.79 204.065H1559.66L1554.68 181.793C1535.04 204.065 1520.1 209.076 1495.48 209.076C1436.28 209.076 1401.42 161.748 1401.42 104.677C1398.94 47.3274 1433.51 0 1492.99 0C1537.53 0 1572.11 22.2717 1577.09 67.0935H1542.51C1540.02 39.8107 1515.4 27.2828 1490.5 27.2828C1448.45 27.2828 1431.3 64.588 1431.3 104.399C1431.3 141.704 1448.73 181.514 1490.5 181.514C1525.08 181.514 1545 161.748 1547.21 126.67H1495.2V99.3875H1581.79V204.065V204.065ZM1608.9 131.96C1608.9 87.1381 1636.01 54.8441 1680.55 54.8441C1725.09 54.8441 1752.2 87.1381 1752.2 131.96C1752.2 176.782 1725.09 209.076 1680.55 209.076C1636.29 209.076 1608.9 176.503 1608.9 131.96ZM1720.38 131.96C1720.38 107.183 1707.93 82.1269 1678.33 82.1269C1648.74 82.1269 1636.29 106.904 1636.29 131.96C1636.29 157.016 1648.74 184.298 1678.33 184.298C1707.93 184.298 1720.38 156.737 1720.38 131.96ZM1764.64 59.5768H1799.22L1836.29 171.492L1870.87 59.5768H1903.24L1853.72 203.786H1819.14L1764.64 59.5768ZM1947.78 139.198C1947.78 161.47 1960.22 181.514 1987.33 181.514C2004.76 181.514 2016.93 173.998 2021.91 156.737H2051.51C2044.04 189.031 2016.93 206.57 1987.33 206.57C1942.8 206.57 1918.18 174.276 1918.18 129.454C1918.18 87.1381 1945.29 52.3385 1987.33 52.3385C2031.87 52.3385 2061.47 94.6548 2054 136.971H1947.78V139.198ZM2021.91 119.432C2021.91 99.6659 2006.98 82.1269 1984.84 82.1269C1962.71 82.1269 1947.78 99.6659 1947.78 119.432H2021.91ZM2078.62 59.5768H2108.22V86.8597C2110.71 71.8263 2130.35 54.5657 2150.27 54.5657C2157.74 54.5657 2160.23 54.5657 2162.72 54.5657V84.3541C2157.74 84.3541 2152.76 81.8485 2147.78 81.8485C2125.65 81.8485 2108.22 99.3875 2108.22 131.682V201.281H2076.13V59.5768H2078.62ZM2182.36 59.5768H2211.96V81.8485C2221.92 66.8151 2236.58 57.0713 2256.5 57.0713C2288.59 57.0713 2308.51 74.6102 2308.51 106.904V206.292H2276.42V114.421C2276.42 92.1492 2266.46 82.1269 2249.31 82.1269C2227.18 82.1269 2214.73 99.6659 2214.73 119.432V204.065H2182.64V59.5768H2182.36ZM2340.6 59.5768H2370.2V79.343C2380.15 64.3096 2392.33 54.5657 2414.73 54.5657C2432.16 54.5657 2449.31 62.0824 2454.29 79.343C2464.25 64.3096 2478.91 54.5657 2498.83 54.5657C2528.43 54.5657 2545.86 67.0935 2545.86 104.399V203.786H2513.77V119.432C2513.77 97.1604 2511.28 79.6214 2486.66 79.6214C2464.53 79.6214 2457.06 94.6548 2457.06 119.432V204.065H2424.97V111.915C2424.97 92.1492 2419.99 82.1269 2400.35 82.1269C2382.92 82.1269 2368.26 94.6548 2368.26 119.432V206.57H2336.17V59.5768H2340.6ZM2607.55 139.198C2607.55 161.47 2620 181.514 2647.11 181.514C2664.53 181.514 2676.71 173.998 2681.68 156.737H2711.28C2703.82 189.031 2676.71 206.57 2647.11 206.57C2602.57 206.57 2577.95 174.276 2577.95 129.454C2577.95 87.1381 2605.06 52.3385 2647.11 52.3385C2691.64 52.3385 2721.24 94.6548 2713.77 136.971H2607.55V139.198ZM2681.68 119.432C2681.68 99.6659 2666.75 82.1269 2644.62 82.1269C2622.49 82.1269 2607.55 99.6659 2607.55 119.432H2681.68ZM2738.67 59.5768H2768.27V81.8485C2778.23 66.8151 2792.89 57.0713 2812.81 57.0713C2844.9 57.0713 2864.82 74.6102 2864.82 106.904V206.292H2832.73V114.421C2832.73 92.1492 2822.77 82.1269 2805.62 82.1269C2783.49 82.1269 2771.04 99.6659 2771.04 119.432V204.065H2738.67V59.5768ZM2884.46 59.5768H2909.08V17.539H2941.17V59.8552H2970.77V84.6325H2941.17V161.748C2941.17 174.276 2941.17 181.514 2956.11 181.514C2961.08 181.514 2966.06 181.514 2968.55 181.514V206.292C2961.08 206.292 2953.62 208.797 2948.91 208.797C2916.82 208.797 2909.35 196.269 2909.35 171.492V84.6325H2884.73L2884.46 59.5768ZM1396.45 420.379C1396.45 375.557 1423.56 343.263 1468.09 343.263C1515.12 343.263 1539.74 375.557 1539.74 420.379C1539.74 465.2 1512.63 497.494 1468.09 497.494C1423.56 497.494 1396.45 465.2 1396.45 420.379ZM1510.14 420.379C1510.14 395.601 1497.69 370.546 1468.09 370.546C1440.98 370.546 1426.05 395.323 1426.05 420.379C1426.05 445.156 1438.49 472.717 1468.09 472.717C1497.69 472.717 1510.14 445.156 1510.14 420.379ZM1554.68 348.274H1579.3V335.746C1579.3 298.441 1598.94 293.43 1618.86 293.43C1628.82 293.43 1636.29 293.43 1640.99 295.935V320.713C1636.01 320.713 1633.52 318.207 1626.05 318.207C1618.58 318.207 1611.11 320.713 1611.11 333.241V348.274H1638.22V373.051H1611.11V494.989H1579.02V373.051H1554.68V348.274ZM1871.15 355.791C1866.17 333.519 1851.51 315.98 1821.63 315.98C1779.58 315.98 1762.43 353.285 1762.43 393.096C1762.43 430.401 1779.86 470.212 1821.63 470.212C1851.23 470.212 1868.66 447.94 1871.15 417.873H1905.73C1903.24 465.2 1871.15 497.494 1821.63 497.494C1762.43 497.494 1727.58 450.167 1727.58 393.096C1727.58 336.024 1762.15 288.697 1821.63 288.697C1866.17 288.697 1900.75 313.474 1905.73 355.791H1871.15V355.791ZM2054 460.189C2054 467.706 2056.49 470.212 2061.47 470.212C2063.96 470.212 2066.45 470.212 2068.94 470.212V492.483C2063.96 494.989 2054 494.989 2049.3 494.989C2036.85 494.989 2027.17 489.978 2024.68 477.45C2012.23 489.978 1992.59 494.989 1975.16 494.989C1950.54 494.989 1925.65 479.955 1925.65 452.673C1925.65 415.367 1955.25 410.356 1980.14 407.851C2002.27 402.84 2022.19 405.345 2022.19 388.085C2022.19 370.546 2004.76 368.318 1992.59 368.318C1975.16 368.318 1962.99 375.835 1960.5 390.59H1928.41C1930.9 353.285 1962.99 343.263 1992.59 343.263C2019.7 343.263 2049.3 355.791 2049.3 385.579V460.189H2054ZM2024.13 420.379C2014.17 427.895 1999.51 425.39 1984.57 427.895C1969.63 430.401 1959.95 435.412 1959.95 452.673C1959.95 467.706 1977.38 470.212 1989.55 470.212C2004.49 470.212 2024.13 462.695 2024.13 442.929V420.379V420.379ZM2088.58 348.274H2118.18V370.546C2128.14 355.512 2142.8 345.768 2162.72 345.768C2194.81 345.768 2214.73 363.307 2214.73 395.601V494.989H2182.64V402.84C2182.64 380.568 2172.68 370.546 2155.53 370.546C2133.4 370.546 2120.95 388.085 2120.95 407.851V492.483H2088.58V348.274ZM2365.22 460.189C2365.22 467.706 2367.71 470.212 2372.69 470.212C2375.17 470.212 2377.66 470.212 2380.15 470.212V492.483C2375.17 494.989 2365.22 494.989 2360.51 494.989C2348.06 494.989 2338.38 489.978 2335.89 477.45C2323.44 489.978 2303.8 494.989 2286.38 494.989C2261.76 494.989 2236.86 479.955 2236.86 452.673C2236.86 415.367 2266.46 410.356 2291.35 407.851C2313.49 402.84 2333.4 405.345 2333.4 388.085C2333.4 370.546 2315.98 368.318 2303.8 368.318C2286.38 368.318 2274.2 375.835 2271.71 390.59H2239.62C2242.11 353.285 2274.2 343.263 2303.8 343.263C2330.91 343.263 2360.51 355.791 2360.51 385.579V460.189H2365.22ZM2333.13 420.379C2323.17 427.895 2308.51 425.39 2293.57 427.895C2278.63 430.401 2268.95 435.412 2268.95 452.673C2268.95 467.706 2286.38 470.212 2298.55 470.212C2313.49 470.212 2333.13 462.695 2333.13 442.929V420.379V420.379ZM2533.41 492.483H2503.81V472.717C2496.34 490.256 2476.7 494.989 2459.27 494.989C2414.73 494.989 2392.6 460.189 2392.6 417.873C2392.6 365.535 2424.69 343.263 2454.29 343.263C2471.72 343.263 2491.36 350.779 2501.32 365.535V290.924H2533.41V492.483ZM2464.25 472.717C2491.36 472.717 2503.81 447.94 2503.81 420.379C2503.81 388.085 2488.87 370.546 2464.25 370.546C2434.65 370.546 2424.69 397.828 2424.69 422.884C2424.69 447.661 2437.14 472.717 2464.25 472.717ZM2689.15 460.189C2689.15 467.706 2691.64 470.212 2696.62 470.212C2699.11 470.212 2701.6 470.212 2704.09 470.212V492.483C2699.11 494.989 2689.15 494.989 2684.45 494.989C2672 494.989 2662.32 489.978 2659.83 477.45C2647.38 489.978 2627.74 494.989 2610.31 494.989C2585.69 494.989 2560.8 479.955 2560.8 452.673C2560.8 415.367 2590.4 410.356 2615.29 407.851C2637.42 402.84 2657.34 405.345 2657.34 388.085C2657.34 370.546 2639.91 368.318 2627.74 368.318C2610.31 368.318 2598.14 375.835 2595.65 390.59H2563.56C2566.05 353.285 2598.14 343.263 2627.74 343.263C2654.85 343.263 2684.45 355.791 2684.45 385.579V460.189H2689.15ZM2657.06 420.379C2647.11 427.895 2632.44 425.39 2617.51 427.895C2602.57 430.401 2592.89 435.412 2592.89 452.673C2592.89 467.706 2610.31 470.212 2622.49 470.212C2637.42 470.212 2657.06 462.695 2657.06 442.929V420.379V420.379ZM3581.3 204.065H3559.17L3554.19 181.793C3534.55 204.065 3519.61 209.076 3494.99 209.076C3435.79 209.076 3400.93 161.748 3400.93 104.677C3400.93 47.6058 3435.51 0.278396 3494.99 0.278396C3539.53 0.278396 3574.1 22.5501 3579.08 67.3719H3544.51C3542.02 40.0891 3517.39 27.5612 3492.5 27.5612C3450.45 27.5612 3433.3 64.8664 3433.3 104.677C3433.3 141.982 3450.73 181.793 3492.5 181.793C3527.08 181.793 3546.99 162.027 3549.21 126.949H3497.2V99.6659H3581.3V204.065V204.065ZM3611.17 131.96C3611.17 87.1381 3638.28 54.8441 3682.82 54.8441C3727.36 54.8441 3754.47 87.1381 3754.47 131.96C3754.47 176.782 3727.36 209.076 3682.82 209.076C3638.28 209.076 3611.17 176.503 3611.17 131.96ZM3722.38 131.96C3722.38 107.183 3709.93 82.1269 3680.33 82.1269C3653.22 82.1269 3638.28 106.904 3638.28 131.96C3638.28 157.016 3650.73 184.298 3680.33 184.298C3709.93 184.298 3722.38 156.737 3722.38 131.96ZM3907.72 204.065H3875.64V184.298C3868.17 199.332 3851.02 209.076 3833.59 209.076C3796.52 209.076 3779.09 189.31 3779.09 152.004V59.5768H3811.18V149.22C3811.18 173.998 3821.14 184.02 3838.29 184.02C3865.4 184.02 3872.87 166.481 3872.87 144.209V59.5768H3904.96L3907.72 204.065ZM3927.37 59.5768H3961.94L3999.01 171.492L4033.59 59.5768H4065.68L4013.95 204.065H3979.37L3927.37 59.5768ZM4105.24 139.198C4105.24 161.47 4117.69 181.514 4144.8 181.514C4162.23 181.514 4174.4 173.998 4179.38 156.737H4208.98C4201.51 189.031 4174.4 206.57 4144.8 206.57C4100.26 206.57 4075.64 174.276 4075.64 129.454C4075.64 87.1381 4102.75 52.3385 4144.8 52.3385C4189.34 52.3385 4218.94 94.6548 4211.47 136.971H4105.24V139.198ZM4179.66 119.432C4179.66 99.6659 4164.72 82.1269 4142.59 82.1269C4120.46 82.1269 4105.52 99.6659 4105.52 119.432H4179.66ZM4236.37 59.5768H4265.97V86.8597C4268.46 71.8263 4288.1 54.5657 4308.01 54.5657C4315.48 54.5657 4317.97 54.5657 4320.46 54.5657V84.3541C4315.48 84.3541 4310.5 81.8485 4305.52 81.8485C4283.39 81.8485 4265.97 99.3875 4265.97 131.682V201.281H4233.88L4236.37 59.5768ZM4335.12 59.5768H4364.72V81.8485C4374.68 66.8151 4389.34 57.0713 4409.26 57.0713C4441.35 57.0713 4461.27 74.6102 4461.27 106.904V206.292H4429.18V114.421C4429.18 92.1492 4419.22 82.1269 4402.07 82.1269C4379.94 82.1269 4367.49 99.6659 4367.49 119.432V204.065H4335.4V59.5768H4335.12ZM4520.47 139.198C4520.47 161.47 4532.92 181.514 4560.03 181.514C4577.46 181.514 4589.63 173.998 4594.61 156.737H4624.21C4616.74 189.031 4589.63 206.57 4560.03 206.57C4515.49 206.57 4490.87 174.276 4490.87 129.454C4490.87 87.1381 4517.98 52.3385 4560.03 52.3385C4604.57 52.3385 4634.16 94.6548 4626.7 136.971H4520.47V139.198ZM4594.88 119.432C4594.88 99.6659 4579.94 82.1269 4557.81 82.1269C4535.68 82.1269 4520.74 99.6659 4520.74 119.432H4594.88ZM4649.1 59.5768H4678.7V79.343C4688.66 64.3096 4700.83 54.5657 4723.24 54.5657C4740.67 54.5657 4757.82 62.0824 4762.8 79.343C4772.76 64.3096 4787.42 54.5657 4807.34 54.5657C4836.94 54.5657 4854.36 67.0935 4854.36 104.399V203.786H4822.28V119.432C4822.28 97.1604 4819.79 79.6214 4795.17 79.6214C4773.03 79.6214 4765.57 94.6548 4765.57 119.432V204.065H4733.2V111.915C4733.2 92.1492 4728.22 82.1269 4708.58 82.1269C4691.15 82.1269 4676.49 94.6548 4676.49 119.432V206.57H4644.4V59.5768H4649.1ZM4916.05 139.198C4916.05 161.47 4928.5 181.514 4955.61 181.514C4973.04 181.514 4985.21 173.998 4990.19 156.737H5019.79C5012.32 189.031 4985.21 206.57 4955.61 206.57C4911.08 206.57 4886.45 174.276 4886.45 129.454C4886.45 87.1381 4913.56 52.3385 4955.61 52.3385C5000.15 52.3385 5029.75 94.6548 5022.28 136.971H4916.05V139.198ZM4990.19 119.432C4990.19 99.6659 4975.25 82.1269 4953.12 82.1269C4930.99 82.1269 4916.05 99.6659 4916.05 119.432H4990.19ZM5047.18 59.5768H5076.78V81.8485C5086.74 66.8151 5101.4 57.0713 5121.32 57.0713C5153.41 57.0713 5173.32 74.6102 5173.32 106.904V206.292H5141.23V114.421C5141.23 92.1492 5131.27 82.1269 5114.12 82.1269C5091.99 82.1269 5079.54 99.6659 5079.54 119.432V204.065H5047.46V59.5768H5047.18ZM5190.47 59.5768H5215.09V17.539H5247.18V59.8552H5276.78V84.6325H5247.18V161.748C5247.18 174.276 5247.18 181.514 5262.12 181.514C5267.1 181.514 5272.08 181.514 5274.57 181.514V206.292C5267.1 206.292 5259.63 208.797 5254.93 208.797C5222.84 208.797 5215.37 196.269 5215.37 171.492V84.6325H5190.75V59.5768H5190.47ZM3539.25 492.483H3509.65V472.717C3502.18 490.256 3482.54 494.989 3465.11 494.989C3420.57 494.989 3398.44 460.189 3398.44 417.873C3398.44 365.535 3428.04 343.263 3460.13 343.263C3477.56 343.263 3497.2 350.779 3507.16 365.535V290.924H3539.25V492.483ZM3467.6 472.717C3494.71 472.717 3507.16 447.94 3507.16 420.379C3507.16 388.085 3492.22 370.546 3467.6 370.546C3438 370.546 3428.04 397.828 3428.04 422.884C3428.04 447.661 3440.49 472.717 3467.6 472.717ZM3699.97 492.483H3667.88V472.717C3660.41 487.751 3643.26 497.494 3625.84 497.494C3588.77 497.494 3571.34 477.728 3571.34 440.423V348.274H3603.43V437.918C3603.43 462.695 3613.39 472.717 3630.54 472.717C3657.65 472.717 3665.12 455.178 3665.12 432.906V348.274H3697.21V492.483H3699.97V492.483ZM3949.77 355.791C3944.79 333.519 3930.13 315.98 3900.26 315.98C3858.21 315.98 3841.06 353.285 3841.06 393.096C3841.06 430.401 3858.48 470.212 3900.26 470.212C3932.35 470.212 3947.28 447.94 3949.77 417.873H3984.35C3981.86 465.2 3947.28 500 3900.26 500C3841.06 500 3806.2 452.673 3806.2 395.601C3806.2 338.53 3840.78 291.203 3900.26 291.203C3944.79 291.203 3979.37 315.98 3984.35 358.296H3949.77V355.791ZM4130.14 460.189C4130.14 467.706 4132.63 470.212 4137.61 470.212C4140.1 470.212 4142.59 470.212 4145.08 470.212V492.483C4140.1 494.989 4130.14 494.989 4125.44 494.989C4112.99 494.989 4103.3 489.978 4100.82 477.45C4088.37 489.978 4068.73 494.989 4051.3 494.989C4026.68 494.989 4001.78 479.955 4001.78 452.673C4001.78 415.367 4031.38 410.356 4056.28 407.851C4078.41 402.84 4098.33 405.345 4098.33 388.085C4098.33 370.546 4080.9 368.318 4068.73 368.318C4051.3 368.318 4039.13 375.835 4036.64 390.59H4004.55C4007.04 353.285 4039.13 343.263 4068.73 343.263C4095.84 343.263 4125.44 355.791 4125.44 385.579V460.189H4130.14ZM4098.05 420.379C4088.09 427.895 4073.43 425.39 4058.49 427.895C4043.55 430.401 4033.87 435.412 4033.87 452.673C4033.87 467.706 4051.3 470.212 4063.47 470.212C4078.41 470.212 4098.05 462.695 4098.05 442.929V420.379ZM4167.21 348.274H4196.81V370.546C4206.77 355.512 4221.43 345.768 4241.34 345.768C4273.43 345.768 4293.35 363.307 4293.35 395.601V494.989H4261.26V402.84C4261.26 380.568 4251.3 370.546 4234.15 370.546C4212.02 370.546 4199.57 388.085 4199.57 407.851V492.483H4167.48V348.274H4167.21ZM4441.63 460.189C4441.63 467.706 4444.12 470.212 4449.1 470.212C4451.59 470.212 4454.08 470.212 4456.57 470.212V492.483C4451.59 494.989 4441.63 494.989 4436.93 494.989C4424.48 494.989 4414.79 489.978 4412.3 477.45C4399.86 489.978 4380.22 494.989 4362.79 494.989C4338.17 494.989 4313.27 479.955 4313.27 452.673C4313.27 415.367 4342.87 410.356 4367.77 407.851C4389.9 402.84 4409.81 405.345 4409.81 388.085C4409.81 370.546 4392.39 368.318 4380.22 368.318C4362.79 368.318 4350.62 375.835 4348.13 390.59H4315.48C4317.97 353.285 4350.06 343.263 4379.66 343.263C4406.77 343.263 4436.37 355.791 4436.37 385.579V460.189H4441.63ZM4409.26 420.379C4399.3 427.895 4384.64 425.39 4369.7 427.895C4354.76 430.401 4345.08 435.412 4345.08 452.673C4345.08 467.706 4362.51 470.212 4374.68 470.212C4389.62 470.212 4409.26 462.695 4409.26 442.929V420.379ZM4612.03 492.483H4582.43V472.717C4574.96 490.256 4555.32 494.989 4537.9 494.989C4493.36 494.989 4471.23 460.189 4471.23 417.873C4471.23 365.535 4503.32 343.263 4532.92 343.263C4550.34 343.263 4569.99 350.779 4579.94 365.535V290.924H4612.03V492.483ZM4540.39 472.717C4567.5 472.717 4579.94 447.94 4579.94 420.379C4579.94 388.085 4565.01 370.546 4540.39 370.546C4510.79 370.546 4500.83 397.828 4500.83 422.884C4500.83 447.661 4513.28 472.717 4540.39 472.717ZM4765.29 460.189C4765.29 467.706 4767.78 470.212 4772.76 470.212C4775.25 470.212 4777.74 470.212 4780.23 470.212V492.483C4775.25 494.989 4765.29 494.989 4760.59 494.989C4748.14 494.989 4738.46 489.978 4735.97 477.45C4723.52 489.978 4703.88 494.989 4686.45 494.989C4661.83 494.989 4636.93 479.955 4636.93 452.673C4636.93 415.367 4666.53 410.356 4691.43 407.851C4713.56 402.84 4733.48 405.345 4733.48 388.085C4733.48 370.546 4716.05 368.318 4703.88 368.318C4686.45 368.318 4674.28 375.835 4671.79 390.59H4639.14C4641.63 353.285 4673.72 343.263 4703.32 343.263C4730.43 343.263 4760.03 355.791 4760.03 385.579V460.189H4765.29ZM4733.2 420.379C4723.24 427.895 4708.58 425.39 4693.64 427.895C4678.7 430.401 4669.02 435.412 4669.02 452.673C4669.02 467.706 4686.45 470.212 4698.62 470.212C4713.56 470.212 4733.2 462.695 4733.2 442.929V420.379Z" fill="white"/>
</g>
<defs>
<clipPath id="clip0_352_16">
<rect width="5276.79" height="500" fill="white"/>
</clipPath>
</defs>
</svg>
