<svg xmlns="http://www.w3.org/2000/svg" width="56" height="61" fill="none" viewBox="0 0 56 61"><g clip-path="url(#clip0_1328_9883)"><path stroke="#E25456" stroke-miterlimit="10" stroke-width="5.946" d="M52.8352 40.5483V20.4534C52.8352 17.798 51.4192 15.3433 49.1187 14.0165L31.7164 3.96913C29.4159 2.6405 26.584 2.6405 24.2835 3.96913L6.88126 14.0165C4.58078 15.3452 3.16481 17.798 3.16481 20.4534V40.5483C3.16481 43.2037 4.58078 45.6584 6.88126 46.9852L24.2835 57.0326C26.584 58.3612 29.4159 58.3612 31.7164 57.0326L49.1187 46.9852C51.4192 45.6565 52.8352 43.2037 52.8352 40.5483Z"/><path stroke="#51E7F2" stroke-miterlimit="10" stroke-width="5.946" d="M40.6103 37.3138V23.104L28.3052 16L16 23.104V37.3138L28.3052 44.4178L40.6103 37.3138Z"/><path fill="#fff" d="M27.9999 34.0036C29.9345 34.0036 31.5027 32.4353 31.5027 30.5008C31.5027 28.5663 29.9345 26.998 27.9999 26.998C26.0654 26.998 24.4972 28.5663 24.4972 30.5008C24.4972 32.4353 26.0654 34.0036 27.9999 34.0036Z"/></g><defs><clipPath id="clip0_1328_9883"><rect width="55.617" height="61" fill="#fff" transform="translate(0.19165)"/></clipPath></defs></svg>