<svg xmlns="http://www.w3.org/2000/svg" width="1200" height="242" fill="none" viewBox="0 0 1200 242"><g clip-path="url(#clip0_1084_7134)"><path fill="#2D468E" d="M388.178 241.984H462.051V180.227H388.178V241.984Z"/><path fill="#2D468E" d="M505.26 241.984H579.133V180.227H505.26V241.984Z"/><path fill="#2D468E" d="M811.941 180.242H738.068V242H811.941V180.242Z"/><path fill="#2D468E" d="M621.002 106.114H579.117V242H621.002V106.114Z"/><path fill="#395AB8" d="M600.06 41.6266H594.201L579.117 106.114H600.06V41.6266Z"/><path fill="#395AB8" d="M600.06 41.6266H605.934L621.018 106.114H600.06V41.6266Z"/><path fill="#2D468E" d="M694.89 180.242H621.017V242H694.89V180.242Z"/><path fill="#10172D" fill-opacity=".5" d="M621.017 180.242V241.984H652.382L621.017 180.242Z"/><path fill="#10172D" fill-opacity=".5" d="M738.068 180.242V241.984H769.45L738.068 180.242Z"/><path fill="#10172D" fill-opacity=".5" d="M387.842 180.242V241.984H419.223L387.842 180.242Z"/><path fill="#10172D" fill-opacity=".5" d="M504.908 180.242V241.984H536.274L504.908 180.242Z"/><path fill="#2D468E" d="M738.085 158.645H694.892V242H738.085V158.645Z"/><path fill="#2D468E" d="M855.135 158.645H811.941V242H855.135V158.645Z"/><path fill="#395AB8" d="M726.608 135.915H706.352L694.892 158.645H738.069L726.608 135.915Z"/><path fill="#395AB8" d="M843.658 135.915H823.418L811.941 158.645H855.135L843.658 135.915Z"/><path fill="#395AB8" d="M694.89 158.645H621.017V180.242H694.89V158.645Z"/><path fill="#395AB8" d="M811.941 158.645H738.068V180.242H811.941V158.645Z"/><path fill="#2D468E" d="M462.05 241.984H505.244V158.63H462.05V241.984Z"/><path fill="#2D468E" d="M345.001 241.984H388.194V158.63H345.001V241.984Z"/><path fill="#395AB8" d="M473.527 135.915H493.783L505.244 158.645H462.066L473.527 135.915Z"/><path fill="#395AB8" d="M356.477 135.915H376.717L388.194 158.645H345L356.477 135.915Z"/><path fill="#395AB8" d="M505.26 180.226H579.133V158.63H505.26V180.226Z"/><path fill="#395AB8" d="M388.178 180.226H462.051V158.63H388.178V180.226Z"/><path fill="#D84E50" d="M636.693 0.30072H600.06V20.844H636.693V0.30072Z"/><path fill="#fff" d="M626.43 0.30072H610.43V21.3007H626.43V0.30072Z"/></g><rect width="51.244" height="52.629" x="1026.88" y="128.086" fill="#2D468E"/><path fill="#395AB8" d="M1039.69 102.464H1065.1L1078.12 128.086H1026.88L1039.69 102.464Z"/><rect width="295" height="61.285" x="905" y="180.715" fill="#2D468E"/><rect width="81.367" height="89.677" x="938.24" y="152.323" fill="#2D468E"/><rect width="81.367" height="89.677" x="1086.78" y="152.323" fill="#2D468E"/><path fill="#395AB8" d="M958.321 118.737H998.843L1019.61 152.323H937.893L958.321 118.737Z"/><path fill="#395AB8" d="M1106.86 118.737H1147.38L1168.15 152.323H1086.43L1106.86 118.737Z"/><path fill="#10172D" fill-opacity=".5" d="M1040.73 242L1020.3 180.715V242H1040.73Z"/><path fill="#10172D" fill-opacity=".5" d="M1189.27 242L1168.84 180.715V242H1189.27Z"/><path fill="#395AB8" d="M100.765 102.15H179.603L220 145.358H61.0195L100.765 102.15Z"/><rect width="207.796" height="96.642" x="36.611" y="145.358" fill="#2D468E"/><rect width="77.511" height="85.427" y="156.573" fill="#2D468E"/><rect width="77.511" height="85.427" x="205.488" y="156.573" fill="#2D468E"/><path fill="#10172D" fill-opacity=".5" d="M96.973 242L77.5127 156.573V242H96.973Z"/><path fill="#395AB8" d="M39.086 119.631L77.5118 156.573H0.660156L39.086 119.631Z"/><path fill="#395AB8" d="M244.572 119.631L282.998 156.573H206.146L244.572 119.631Z"/><rect width="10.555" height="55.412" x="136.222" y="171.745" fill="#10172D" fill-opacity=".5"/><rect width="10.555" height="55.412" x="161.95" y="171.745" fill="#10172D" fill-opacity=".5"/><rect width="10.555" height="55.412" x="239.46" y="171.745" fill="#10172D" fill-opacity=".5"/><rect width="10.555" height="55.412" x="110.495" y="171.745" fill="#10172D" fill-opacity=".5"/><rect width="10.555" height="55.412" x="33.642" y="171.745" fill="#10172D" fill-opacity=".5"/><defs><clipPath id="clip0_1084_7134"><rect width="510.135" height="241.699" fill="#fff" transform="translate(345 0.30072)"/></clipPath></defs></svg>