<svg width="155" height="38" viewBox="0 0 155 38" fill="none" xmlns="http://www.w3.org/2000/svg">
<path d="M147.309 0.423096H152.941V11.6884H147.309V0.423096ZM137.56 6.05573L137.235 6.16405C137.235 6.16405 139.185 7.78885 139.185 7.89717C139.293 8.00549 139.401 8.00549 139.293 8.33045C139.185 8.65541 139.076 8.98037 139.076 8.98037C139.076 8.98037 140.81 8.65541 141.026 8.54709C141.243 8.54709 141.351 8.54709 141.351 8.76373C141.351 8.98037 141.243 10.8218 141.243 10.8218H141.784C141.784 10.8218 141.676 8.87205 141.676 8.76373C141.676 8.54709 141.784 8.54709 142.001 8.54709C142.218 8.54709 143.951 8.98037 143.951 8.98037C143.951 8.98037 143.842 8.54709 143.734 8.33045C143.626 8.00549 143.734 8.00549 143.842 7.89717C143.951 7.78885 145.792 6.16405 145.792 6.16405L145.467 6.05573C145.251 5.94741 145.359 5.83909 145.359 5.73077C145.359 5.62245 145.684 4.53925 145.684 4.53925C145.684 4.53925 144.817 4.75589 144.709 4.75589C144.601 4.75589 144.492 4.75589 144.492 4.64757C144.492 4.53925 144.276 4.10597 144.276 4.10597C144.276 4.10597 143.301 5.18917 143.193 5.29749C142.976 5.51413 142.759 5.29749 142.868 5.08085C142.868 4.86421 143.409 2.5895 143.409 2.5895C143.409 2.5895 142.868 2.91445 142.651 3.02277C142.434 3.13109 142.326 3.13109 142.326 2.91445C142.218 2.69782 141.568 1.5063 141.568 1.39798C141.568 1.39798 140.918 2.69782 140.81 2.91445C140.701 3.13109 140.593 3.13109 140.485 3.02277C140.268 2.91445 139.726 2.5895 139.726 2.5895C139.726 2.5895 140.268 4.86421 140.268 5.08085C140.268 5.29749 140.16 5.40581 139.943 5.29749L138.86 4.10597C138.86 4.10597 138.751 4.43093 138.643 4.53925C138.643 4.64757 138.535 4.75589 138.426 4.64757C138.21 4.64757 137.343 4.43093 137.343 4.43093C137.343 4.43093 137.668 5.51413 137.777 5.62245C137.777 5.73077 137.777 5.94741 137.56 6.05573ZM130.302 0.423096H135.935V11.6884H130.302V0.423096Z" fill="#FF0000"/>
<path d="M154.133 34.2144C153.7 35.1893 152.833 35.5142 152.292 35.5142C151.642 35.5142 149.692 35.4059 149.692 30.3149C149.692 30.3149 149.692 20.0245 149.692 19.3746C149.692 16.0167 147.092 13.3087 140.376 13.3087C133.119 13.3087 133.011 16.8832 133.011 17.7498C132.902 18.7246 133.444 19.8078 135.285 19.8078C136.91 19.8078 137.343 17.9664 137.56 17.3165C137.777 16.5582 137.885 14.3918 140.81 14.3918C143.301 14.3918 144.817 16.5582 144.926 19.6995C144.926 20.2411 144.926 20.5661 144.926 20.891C144.926 21.1077 144.926 21.216 144.926 21.4326V21.541C144.709 22.6242 144.168 23.1658 143.193 23.599C141.893 24.249 138.102 24.7906 137.668 24.8989C136.152 25.2238 131.927 26.307 132.036 30.7482C132.144 35.081 136.477 36.5974 139.51 36.4891C142.434 36.3808 144.168 35.1893 144.926 34.5394C145.359 34.2144 145.359 34.2144 145.684 34.6477C146.117 35.081 147.525 36.4891 150.883 36.4891C154.35 36.4891 154.783 34.8643 155 34.3227C155.108 33.9978 154.35 33.6728 154.133 34.2144ZM140.593 35.4059C137.56 35.4059 136.802 32.9146 136.802 31.6147C136.802 30.4232 137.452 27.9318 140.485 26.1987C140.485 26.1987 141.893 25.3322 144.601 24.249C144.709 24.249 144.817 24.249 144.817 24.249C144.817 24.249 144.926 24.3573 144.926 24.4656V24.5739V24.6822V29.2317C144.926 32.8062 143.193 35.4059 140.593 35.4059ZM130.628 35.2976C130.194 35.1893 127.486 35.5142 127.486 27.2819C127.486 19.0496 127.486 1.39345 127.486 1.39345C127.486 1.06849 127.486 0.201935 126.511 0.201935C125.536 0.201935 119.037 0.526895 118.604 0.635215C118.171 0.635215 117.846 1.17681 118.604 1.17681C119.362 1.28513 122.828 1.50177 122.828 7.24273C122.828 10.0591 122.828 12.8754 122.828 14.9334C122.828 15.0418 122.828 15.1501 122.828 15.1501C122.828 15.3667 122.828 15.475 122.72 15.5834C122.72 15.5834 122.72 15.5834 122.72 15.6917C122.612 15.8 122.504 15.6917 122.179 15.475C121.637 15.0418 119.146 13.5253 116.004 13.5253C110.913 13.5253 104.631 17.2082 104.631 24.7906C104.631 32.9146 110.372 36.8141 116.329 36.8141C119.254 36.8141 121.312 35.5142 122.07 35.081C122.937 34.5394 122.828 34.6477 122.937 35.4059C123.045 35.9475 122.937 37.0307 124.453 36.9224C126.078 36.7058 129.978 36.2725 130.736 36.1642C131.494 35.8392 131.277 35.4059 130.628 35.2976ZM117.196 35.6226C112.43 35.6226 109.938 29.9899 109.938 24.5739C109.938 18.6163 113.296 14.6085 116.871 14.8251C121.529 15.1501 122.72 18.833 122.828 25.4405C122.828 25.8738 122.828 26.307 122.828 26.8486C122.72 33.3478 120.012 35.6226 117.196 35.6226ZM104.522 34.2144C104.089 35.1893 103.223 35.5142 102.681 35.5142C102.031 35.5142 100.081 35.4059 100.081 30.3149C100.081 30.3149 100.081 20.0245 100.081 19.3746C100.081 16.0167 97.4816 13.3087 90.7658 13.3087C83.5083 13.3087 83.4 16.8832 83.4 17.7498C83.2917 18.7246 83.8333 19.8078 85.6748 19.8078C87.2995 19.8078 87.7328 17.9664 87.9495 17.3165C88.1661 16.5582 88.2744 14.3918 91.1991 14.3918C93.6904 14.3918 95.3152 16.5582 95.3152 19.8078V19.9162C95.3152 20.0245 95.3152 20.1328 95.3152 20.1328V20.4578C95.3152 20.5661 95.3152 20.7827 95.3152 20.891C95.2069 22.5158 94.7736 23.0574 93.4738 23.7074C92.1739 24.3573 88.3827 24.8989 87.9495 25.0072C86.433 25.3322 82.2085 26.4154 82.3168 30.8565C82.4251 35.1893 86.7579 36.7058 89.7909 36.5974C92.7155 36.4891 94.4487 35.2976 95.2069 34.6477C95.6402 34.3227 95.6402 34.3227 95.9651 34.756C96.3984 35.1893 97.8066 36.5974 101.165 36.5974C104.631 36.5974 105.064 34.9726 105.281 34.431C105.497 33.9978 104.847 33.6728 104.522 34.2144ZM91.0907 35.4059C88.0578 35.4059 87.2995 32.9146 87.2995 31.6147C87.2995 30.4232 87.9495 27.9318 90.9824 26.1987C90.9824 26.1987 92.3906 25.3322 95.0986 24.249C95.2069 24.249 95.3152 24.249 95.3152 24.249V24.3573C95.3152 24.4656 95.3152 24.5739 95.3152 24.7906V24.6822C95.3152 24.6822 95.3152 24.6822 95.3152 24.7906V29.34C95.3152 32.8062 93.5821 35.4059 91.0907 35.4059ZM80.692 35.2976C79.8255 35.081 78.309 34.1061 78.309 29.34V20.6744C78.309 18.6163 78.5256 13.3087 70.4016 13.3087C66.1772 13.3087 63.7941 15.475 63.5775 15.5834C63.2525 15.9083 63.0359 16.0166 62.9276 15.475C62.8192 15.0418 62.6026 14.3918 62.4943 13.9586C62.386 13.6336 62.1693 13.3087 61.4111 13.417C60.6528 13.5253 55.8868 14.2835 55.0202 14.5002C54.262 14.7168 54.4786 15.0418 55.0202 15.1501C55.5618 15.2584 58.1615 15.475 58.1615 19.9162C58.1615 24.3573 58.1615 29.2317 58.1615 29.2317C58.1615 34.6477 57.0783 35.081 56.1034 35.4059C54.8036 35.7309 55.4535 36.1642 55.9951 36.1642C55.9951 36.1642 65.6356 36.1642 65.8522 36.1642C66.5021 36.1642 66.8271 35.5142 65.5272 35.2976C64.2274 35.081 63.0359 34.3227 63.0359 30.0982C63.0359 29.665 63.0359 25.0072 63.0359 24.1406C63.0359 21.8659 62.4943 14.9334 68.7768 14.8251C73.2179 14.7168 73.6512 18.3997 73.6512 20.7827V29.9899C73.6512 33.7811 72.568 34.9726 71.2682 35.1893C70.0767 35.4059 70.2933 35.9475 70.9432 35.9475C71.1599 35.9475 81.017 35.9475 81.017 35.9475C81.5586 36.1642 82.1002 35.6226 80.692 35.2976ZM54.3703 34.2144C53.937 35.1893 53.0704 35.5142 52.5288 35.5142C51.8789 35.5142 49.9292 35.4059 49.9292 30.3149C49.9292 30.3149 49.9292 20.0245 49.9292 19.3746C49.9292 16.0167 47.3295 13.3087 40.6136 13.3087C33.3562 13.3087 33.2479 16.8832 33.2479 17.7498C33.1396 18.7246 33.6812 19.8078 35.5226 19.8078C37.1474 19.8078 37.5807 17.9664 37.7973 17.3165C38.014 16.5582 38.1223 14.3918 41.0469 14.3918C43.5383 14.3918 45.0548 16.5582 45.1631 19.6995C45.1631 20.2411 45.1631 20.5661 45.1631 20.891C45.1631 21.1077 45.1631 21.3243 45.0548 21.4326V21.541C44.8381 22.6242 44.2965 23.1658 43.3216 23.599C42.0218 24.249 38.2306 24.7906 37.7973 24.8989C36.2808 25.2238 32.0564 26.307 32.1647 30.7482C32.273 35.081 36.6058 36.5974 39.6388 36.4891C42.5634 36.3808 44.2965 35.1893 45.0548 34.5394C45.488 34.2144 45.488 34.2144 45.813 34.6477C46.2463 35.081 47.6544 36.4891 51.0124 36.4891C54.4786 36.4891 54.9119 34.8643 55.1285 34.3227C55.3452 33.9978 54.5869 33.6728 54.3703 34.2144ZM40.8303 35.4059C37.7973 35.4059 37.0391 32.9146 37.0391 31.6147C37.0391 30.3149 37.689 27.9318 40.722 26.1987C40.722 26.1987 42.1301 25.3322 44.8381 24.249C44.9464 24.249 45.0548 24.249 45.0548 24.249C45.0548 24.249 45.1631 24.3573 45.1631 24.4656C45.1631 24.4656 45.1631 24.5739 45.1631 24.6822V24.7906V29.34C45.1631 32.8062 43.43 35.4059 40.8303 35.4059ZM30.4316 25.9821C29.3484 29.4483 27.2903 35.081 19.8162 35.2976C12.0172 35.4059 7.35941 30.0982 7.14277 20.2411C6.81781 9.73409 11.3673 1.71841 18.408 1.50177C26.3154 1.39345 29.1317 10.8173 29.24 12.2255C29.3484 13.3087 30.7565 13.2003 30.7565 12.1171C30.7565 11.5755 30.1066 2.26001 29.89 1.17681C29.6733 0.093615 28.8068 0.526895 28.5901 0.960175C28.4818 1.28513 28.6984 0.635215 28.2652 1.61009C27.8319 2.58497 26.6404 2.04337 26.2071 1.93505C24.9072 1.39345 22.4159 0.093615 18.408 0.201935C9.20085 0.418575 -0.222984 7.24273 -0.00634443 19.1579C0.210295 30.7482 9.52581 37.2474 18.1914 37.139C26.0988 37.0307 30.5399 32.048 31.8397 26.307C32.273 24.8989 30.8648 24.5739 30.4316 25.9821Z" fill="black"/>
</svg>
