<svg width="78" height="78" viewBox="0 0 78 78" fill="none" xmlns="http://www.w3.org/2000/svg">
<rect width="78" height="78" fill="#1F3269"/>
<g clip-path="url(#clip0_2422_5933)">
<path d="M54 34.5C54 38.8031 52.6031 42.7781 50.25 46.0031L62.1187 57.8812C63.2906 59.0531 63.2906 60.9563 62.1187 62.1281C60.9469 63.3 59.0437 63.3 57.8719 62.1281L46.0031 50.25C42.7781 52.6125 38.8031 54 34.5 54C23.7281 54 15 45.2719 15 34.5C15 23.7281 23.7281 15 34.5 15C45.2719 15 54 23.7281 54 34.5ZM24.75 35.25V41.25C24.75 42.4969 25.7531 43.5 27 43.5C28.2469 43.5 29.25 42.4969 29.25 41.25V35.25C29.25 34.0031 28.2469 33 27 33C25.7531 33 24.75 34.0031 24.75 35.25ZM32.25 26.25V41.25C32.25 42.4969 33.2531 43.5 34.5 43.5C35.7469 43.5 36.75 42.4969 36.75 41.25V26.25C36.75 25.0031 35.7469 24 34.5 24C33.2531 24 32.25 25.0031 32.25 26.25ZM39.75 32.25V41.25C39.75 42.4969 40.7531 43.5 42 43.5C43.2469 43.5 44.25 42.4969 44.25 41.25V32.25C44.25 31.0031 43.2469 30 42 30C40.7531 30 39.75 31.0031 39.75 32.25Z" fill="#469EE1"/>
</g>
<defs>
<clipPath id="clip0_2422_5933">
<rect width="48" height="48" fill="white" transform="translate(15 15)"/>
</clipPath>
</defs>
</svg>
