<svg width="78" height="78" viewBox="0 0 78 78" fill="none" xmlns="http://www.w3.org/2000/svg">
<rect width="78" height="78" fill="#51E7F2"/>
<path d="M45.25 60.875C43.5215 60.875 42.125 59.4785 42.125 57.75C42.125 56.0215 43.5215 54.625 45.25 54.625H50.2012L39 43.4238L27.7988 54.625H32.75C34.4785 54.625 35.875 56.0215 35.875 57.75C35.875 59.4785 34.4785 60.875 32.75 60.875H20.25C18.5215 60.875 17.125 59.4785 17.125 57.75V45.25C17.125 43.5215 18.5215 42.125 20.25 42.125C21.9785 42.125 23.375 43.5215 23.375 45.25V50.2012L34.5762 39L23.375 27.7988V32.75C23.375 34.4785 21.9785 35.875 20.25 35.875C18.5215 35.875 17.125 34.4785 17.125 32.75V20.25C17.125 18.5215 18.5215 17.125 20.25 17.125H32.75C34.4785 17.125 35.875 18.5215 35.875 20.25C35.875 21.9785 34.4785 23.375 32.75 23.375H27.7988L39 34.5762L50.2012 23.375H45.25C43.5215 23.375 42.125 21.9785 42.125 20.25C42.125 18.5215 43.5215 17.125 45.25 17.125H57.75C59.4785 17.125 60.875 18.5215 60.875 20.25V32.75C60.875 34.4785 59.4785 35.875 57.75 35.875C56.0215 35.875 54.625 34.4785 54.625 32.75V27.7988L43.4238 39L54.625 50.2012V45.25C54.625 43.5215 56.0215 42.125 57.75 42.125C59.4785 42.125 60.875 43.5215 60.875 45.25V57.75C60.875 59.4785 59.4785 60.875 57.75 60.875H45.25Z" fill="#1F3269"/>
</svg>
