<svg width="78" height="78" viewBox="0 0 78 78" fill="none" xmlns="http://www.w3.org/2000/svg">
<rect width="78" height="78" fill="#E25456"/>
<path d="M51.8153 48.5964C52.066 48.3457 62.3643 39.3309 62.3643 39.3309L60.6095 38.5788C59.6068 38.0875 59.8675 37.4257 60.1081 36.834C60.3488 36.0719 62.1237 30.0855 62.1237 30.0855C62.1237 30.0855 57.3405 31.0882 56.3378 31.3389C55.5857 31.5796 55.335 31.0882 55.0843 30.5868C54.8336 30.0855 53.5802 27.3379 53.5802 27.3379C53.5802 27.3379 48.3057 33.3444 48.055 33.5851C47.0522 34.3372 46.0394 33.5851 46.2901 32.5823C46.2901 31.5796 49.0577 19.5866 49.0577 19.5866C49.0577 19.5866 46.0394 21.3314 45.0367 21.8327C44.2846 22.3341 43.7732 22.3341 43.2718 21.3314C42.7604 20.5793 38.99 13.3293 38.99 13.3293C38.99 13.3293 35.2297 20.5793 34.7283 21.3314C34.2269 22.3341 33.7255 22.3341 32.9634 21.8327C31.9607 21.3314 28.9424 19.5866 28.9424 19.5866C28.9424 19.5866 31.71 31.5796 31.71 32.5823C31.9607 33.5851 30.9579 34.3372 29.9451 33.5851C29.6944 33.3344 24.4199 27.3379 24.4199 27.3379C24.4199 27.3379 23.1665 30.0754 22.9158 30.5768C22.6651 31.0782 22.4144 31.5695 21.6623 31.3289C20.6495 31.0782 15.8764 30.0754 15.8764 30.0754C15.8764 30.0754 17.6413 36.0619 17.892 36.824C18.1326 37.4257 18.3933 38.0775 17.3906 38.5688L15.6357 39.3309C15.6357 39.3309 25.9241 48.3457 26.1848 48.5964C26.6962 49.0978 27.1875 49.3485 26.6962 50.8526C26.1848 52.3568 25.6834 54.3723 25.6834 54.3723C25.6834 54.3723 35.2297 52.3568 36.2425 52.1061C37.1149 52.0158 38.0775 52.3568 38.0775 53.3595C38.0775 54.3623 37.4959 64.6706 37.4959 64.6706H40.5042C40.5042 64.6706 39.9226 54.3723 39.9226 53.3595C39.9226 52.3467 40.8752 52.0158 41.7677 52.1061C42.7704 52.3568 52.3167 54.3723 52.3167 54.3723C52.3167 54.3723 51.8153 52.3568 51.3139 50.8526C50.8126 49.3485 51.3139 49.0978 51.8153 48.5964Z" fill="#51E7F2"/>
</svg>
