<svg width="1911" height="1329" viewBox="0 0 1911 1329" fill="none" xmlns="http://www.w3.org/2000/svg">
<rect width="1911" height="1329" fill="#055668"/>
<g clip-path="url(#clip0_764_54)">
<path d="M438.399 959.962H618.726V809.209H438.399V959.962Z" fill="#E6E7E8"/>
<path d="M724.204 959.962H904.531V809.209H724.204V959.962Z" fill="#E6E7E8"/>
<path d="M1472.83 809.247H1292.5V960H1472.83V809.247Z" fill="#E6E7E8"/>
<path d="M1006.73 628.295H904.492V960H1006.73V628.295Z" fill="#E6E7E8"/>
<path d="M955.613 470.878H941.313L904.492 628.295H955.613V470.878Z" fill="#51E7F2"/>
<path d="M955.613 470.878H969.952L1006.77 628.295H955.613V470.878Z" fill="#51E7F2"/>
<path d="M1187.1 809.247H1006.77V960H1187.1V809.247Z" fill="#E6E7E8"/>
<path d="M1006.77 809.247V959.961H1083.34L1006.77 809.247Z" fill="#939598"/>
<path d="M1292.5 809.247V959.961H1369.1L1292.5 809.247Z" fill="#939598"/>
<path d="M437.581 809.247V959.961H514.185L437.581 809.247Z" fill="#939598"/>
<path d="M723.346 809.247V959.961H799.911L723.346 809.247Z" fill="#939598"/>
<path d="M1292.54 756.527H1187.1V960H1292.54V756.527Z" fill="#E6E7E8"/>
<path d="M1578.27 756.527H1472.83V960H1578.27V756.527Z" fill="#E6E7E8"/>
<path d="M1264.52 701.042H1215.08L1187.1 756.527H1292.5L1264.52 701.042Z" fill="#51E7F2"/>
<path d="M1550.25 701.042H1500.84L1472.83 756.527H1578.27L1550.25 701.042Z" fill="#51E7F2"/>
<path d="M1187.1 756.527H1006.77V809.246H1187.1V756.527Z" fill="#51E7F2"/>
<path d="M1472.83 756.527H1292.5V809.246H1472.83V756.527Z" fill="#51E7F2"/>
<path d="M618.726 959.96H724.164V756.489H618.726V959.96Z" fill="#E6E7E8"/>
<path d="M333 959.96H438.438V756.489H333V959.96Z" fill="#E6E7E8"/>
<path d="M646.742 701.042H696.188L724.164 756.527H618.765L646.742 701.042Z" fill="#51E7F2"/>
<path d="M361.015 701.042H410.422L438.438 756.527H333L361.015 701.042Z" fill="#51E7F2"/>
<path d="M724.204 809.208H904.531V756.489H724.204V809.208Z" fill="#51E7F2"/>
<path d="M438.399 809.208H618.726V756.489H438.399V809.208Z" fill="#51E7F2"/>
<path d="M1045.04 370H955.613V420.147H1045.04V370Z" fill="#E25456"/>
</g>
<defs>
<clipPath id="clip0_764_54">
<rect width="1245.27" height="590" fill="white" transform="translate(333 370)"/>
</clipPath>
</defs>
</svg>
