<svg width="1911" height="1329" viewBox="0 0 1911 1329" fill="none" xmlns="http://www.w3.org/2000/svg">
<rect width="1911" height="1329" fill="#10172D"/>
<path d="M832.5 467H1071.52L1194 598H712L832.5 467Z" fill="#51E7F2"/>
<rect x="638" y="598" width="630" height="293" fill="#E6E7E8"/>
<rect x="527" y="632" width="235" height="259" fill="#E6E7E8"/>
<rect x="1150" y="632" width="235" height="259" fill="#E6E7E8"/>
<path d="M821 891L762 632V891H821Z" fill="#939598"/>
<path d="M645.5 520L762 632H529L645.5 520Z" fill="#51E7F2"/>
<path d="M1268.5 520L1385 632H1152L1268.5 520Z" fill="#51E7F2"/>
<rect x="940" y="678" width="32" height="168" fill="#C4C4C4"/>
<rect x="1018" y="678" width="32" height="168" fill="#C4C4C4"/>
<rect x="1253" y="678" width="32" height="168" fill="#C4C4C4"/>
<rect x="862" y="678" width="32" height="168" fill="#C4C4C4"/>
<rect x="629" y="678" width="32" height="168" fill="#C4C4C4"/>
</svg>
