<svg width="102" height="103" viewBox="0 0 102 103" fill="none" xmlns="http://www.w3.org/2000/svg">
<rect width="102" height="102" transform="translate(0 0.5)" fill="#A4D1F5"/>
<g clip-path="url(#clip0_2281_6350)">
<path d="M54.311 28.1992C52.4849 26.373 49.5161 26.373 47.6802 28.1992L43.2368 32.6523H36.938C34.3501 32.6523 32.2505 34.752 32.2505 37.3398V43.6387L27.7974 48.0918C25.9712 49.918 25.9712 52.8867 27.7974 54.7227L32.2505 59.166V65.4648C32.2505 68.0527 34.3501 70.1523 36.938 70.1523H43.2368L47.6899 74.6055C49.5161 76.4316 52.4849 76.4316 54.3208 74.6055L58.7642 70.1523H65.063C67.6509 70.1523 69.7505 68.0527 69.7505 65.4648V59.166L74.2036 54.7129C76.0298 52.8867 76.0298 49.918 74.2036 48.082L69.7505 43.6387V37.3398C69.7505 34.752 67.6509 32.6523 65.063 32.6523H58.7642L54.311 28.1992Z" fill="white"/>
</g>
<defs>
<clipPath id="clip0_2281_6350">
<rect width="50" height="50" fill="white" transform="translate(26 26.4023)"/>
</clipPath>
</defs>
</svg>
