<svg width="102" height="102" viewBox="0 0 102 102" fill="none" xmlns="http://www.w3.org/2000/svg">
<rect width="102" height="102" fill="#A4D1F5"/>
<g clip-path="url(#clip0_2281_6345)">
<path d="M43.1875 40.4648V45.1523H58.8125V40.4648C58.8125 36.1484 55.3164 32.6523 51 32.6523C46.6836 32.6523 43.1875 36.1484 43.1875 40.4648ZM36.9375 45.1523V40.4648C36.9375 32.7012 43.2363 26.4023 51 26.4023C58.7637 26.4023 65.0625 32.7012 65.0625 40.4648V45.1523H66.625C70.0723 45.1523 72.875 47.9551 72.875 51.4023V70.1523C72.875 73.5996 70.0723 76.4023 66.625 76.4023H35.375C31.9277 76.4023 29.125 73.5996 29.125 70.1523V51.4023C29.125 47.9551 31.9277 45.1523 35.375 45.1523H36.9375Z" fill="white"/>
<path d="M41.6572 59.9559L48.1775 66.4762L61.9281 52.7256" stroke="#A4D1F5" stroke-width="6"/>
</g>
<defs>
<clipPath id="clip0_2281_6345">
<rect width="43.75" height="50" fill="white" transform="translate(29.125 26.4023)"/>
</clipPath>
</defs>
</svg>
