<svg width="102" height="102" viewBox="0 0 102 102" fill="none" xmlns="http://www.w3.org/2000/svg">
<rect width="102" height="102" fill="#D84E50"/>
<g clip-path="url(#clip0_2281_6353)">
<path d="M51 76.4023C57.6304 76.4023 63.9893 73.7684 68.6777 69.08C73.3661 64.3916 76 58.0328 76 51.4023C76 44.7719 73.3661 38.4131 68.6777 33.7247C63.9893 29.0363 57.6304 26.4023 51 26.4023C44.3696 26.4023 38.0107 29.0363 33.3223 33.7247C28.6339 38.4131 26 44.7719 26 51.4023C26 58.0328 28.6339 64.3916 33.3223 69.08C38.0107 73.7684 44.3696 76.4023 51 76.4023ZM62.0352 46.8125L49.5352 59.3125C48.6172 60.2305 47.1328 60.2305 46.2246 59.3125L39.9746 53.0625C39.0566 52.1445 39.0566 50.6602 39.9746 49.752C40.8926 48.8438 42.377 48.834 43.2852 49.752L47.875 54.3418L58.7148 43.4922C59.6328 42.5742 61.1172 42.5742 62.0254 43.4922C62.9336 44.4102 62.9434 45.8945 62.0254 46.8027L62.0352 46.8125Z" fill="white"/>
</g>
<defs>
<clipPath id="clip0_2281_6353">
<rect width="50" height="50" fill="white" transform="translate(26 26.4023)"/>
</clipPath>
</defs>
</svg>
