<svg width="102" height="102" viewBox="0 0 102 102" fill="none" xmlns="http://www.w3.org/2000/svg">
<rect width="102" height="102" fill="#A4D1F5"/>
<g clip-path="url(#clip0_2281_6332)">
<path d="M31 34.7357C31 31.6715 33.4913 29.1802 36.5556 29.1802H58.7778C61.842 29.1802 64.3333 31.6715 64.3333 34.7357V46.4198C57.9184 48.234 53.2222 54.1281 53.2222 61.1246C53.2222 66.2548 55.7483 70.7861 59.6198 73.5639C59.342 73.6073 59.0642 73.6246 58.7778 73.6246H36.5556C33.4913 73.6246 31 71.1333 31 68.0691V34.7357ZM36.5556 41.6802C36.5556 42.4441 37.1806 43.0691 37.9444 43.0691H57.3889C58.1528 43.0691 58.7778 42.4441 58.7778 41.6802C58.7778 40.9163 58.1528 40.2913 57.3889 40.2913H37.9444C37.1806 40.2913 36.5556 40.9163 36.5556 41.6802ZM37.9444 48.6246C37.1806 48.6246 36.5556 49.2496 36.5556 50.0135C36.5556 50.7774 37.1806 51.4024 37.9444 51.4024H51.8333C52.5972 51.4024 53.2222 50.7774 53.2222 50.0135C53.2222 49.2496 52.5972 48.6246 51.8333 48.6246H37.9444ZM37.9444 56.958C37.1806 56.958 36.5556 57.583 36.5556 58.3468C36.5556 59.1107 37.1806 59.7357 37.9444 59.7357H46.2778C47.0417 59.7357 47.6667 59.1107 47.6667 58.3468C47.6667 57.583 47.0417 56.958 46.2778 56.958H37.9444ZM56 61.1246C56 57.8094 57.317 54.63 59.6612 52.2858C62.0054 49.9416 65.1848 48.6246 68.5 48.6246C71.8152 48.6246 74.9946 49.9416 77.3388 52.2858C79.683 54.63 81 57.8094 81 61.1246C81 64.4398 79.683 67.6192 77.3388 69.9635C74.9946 72.3077 71.8152 73.6246 68.5 73.6246C65.1848 73.6246 62.0054 72.3077 59.6612 69.9635C57.317 67.6192 56 64.4398 56 61.1246ZM72.3802 57.3659L67.1111 62.635L64.6198 60.1437C64.0816 59.6055 63.1962 59.6055 62.658 60.1437C62.1198 60.6819 62.1198 61.5673 62.658 62.1055L66.1302 65.5777C66.6684 66.1159 67.5538 66.1159 68.092 65.5777L74.342 59.3277C74.8802 58.7895 74.8802 57.9041 74.342 57.3659C73.8038 56.8277 72.9184 56.8277 72.3802 57.3659Z" fill="white"/>
</g>
<defs>
<clipPath id="clip0_2281_6332">
<rect width="50" height="44.4444" fill="white" transform="translate(31 29.1802)"/>
</clipPath>
</defs>
</svg>
