<svg width="102" height="102" viewBox="0 0 102 102" fill="none" xmlns="http://www.w3.org/2000/svg">
<rect width="102" height="102" fill="#E25456"/>
<g clip-path="url(#clip0_2281_6335)">
<path d="M37.8057 27.9103V31.2089H32.8579C30.1264 31.2089 27.9102 33.4251 27.9102 36.1566V41.1044H74.0895V36.1566C74.0895 33.4251 71.8733 31.2089 69.1417 31.2089H64.1939V27.9103C64.1939 26.0858 62.7199 24.6118 60.8954 24.6118C59.0709 24.6118 57.5969 26.0858 57.5969 27.9103V31.2089H44.4028V27.9103C44.4028 26.0858 42.9287 24.6118 41.1042 24.6118C39.2798 24.6118 37.8057 26.0858 37.8057 27.9103ZM74.0895 44.403H27.9102V72.4404C27.9102 75.172 30.1264 77.3882 32.8579 77.3882H69.1417C71.8733 77.3882 74.0895 75.172 74.0895 72.4404V44.403ZM41.1042 54.2985C41.1042 55.1733 40.7567 56.0123 40.1381 56.6309C39.5195 57.2495 38.6805 57.597 37.8057 57.597C36.9309 57.597 36.0919 57.2495 35.4733 56.6309C34.8547 56.0123 34.5072 55.1733 34.5072 54.2985C34.5072 53.4237 34.8547 52.5847 35.4733 51.9661C36.0919 51.3475 36.9309 51 37.8057 51C38.6805 51 39.5195 51.3475 40.1381 51.9661C40.7567 52.5847 41.1042 53.4237 41.1042 54.2985ZM64.1939 70.7911C63.3191 70.7911 62.4801 70.4436 61.8615 69.825C61.2429 69.2064 60.8954 68.3674 60.8954 67.4926C60.8954 66.6178 61.2429 65.7788 61.8615 65.1602C62.4801 64.5416 63.3191 64.1941 64.1939 64.1941C65.0687 64.1941 65.9077 64.5416 66.5263 65.1602C67.1449 65.7788 67.4924 66.6178 67.4924 67.4926C67.4924 68.3674 67.1449 69.2064 66.5263 69.825C65.9077 70.4436 65.0687 70.7911 64.1939 70.7911ZM47.7013 54.2985C47.7013 52.9276 48.8042 51.8246 50.1752 51.8246H65.0185C66.3895 51.8246 67.4924 52.9276 67.4924 54.2985C67.4924 55.6695 66.3895 56.7724 65.0185 56.7724H50.1752C48.8042 56.7724 47.7013 55.6695 47.7013 54.2985ZM51.8244 65.0187C53.1954 65.0187 54.2983 66.1217 54.2983 67.4926C54.2983 68.8636 53.1954 69.9665 51.8244 69.9665H36.9811C35.6101 69.9665 34.5072 68.8636 34.5072 67.4926C34.5072 66.1217 35.6101 65.0187 36.9811 65.0187H51.8244Z" fill="white"/>
</g>
<defs>
<clipPath id="clip0_2281_6335">
<rect width="46.1793" height="52.7764" fill="white" transform="translate(27.9102 24.6118)"/>
</clipPath>
</defs>
</svg>
