<svg width="102" height="103" viewBox="0 0 102 103" fill="none" xmlns="http://www.w3.org/2000/svg">
<rect width="102" height="102" transform="translate(0 0.5)" fill="#A4D1F5"/>
<g clip-path="url(#clip0_2281_6339)">
<path d="M72.416 27.6035C71.7129 26.9004 70.7461 26.5 69.75 26.5C68.7539 26.5 67.7871 26.9004 67.084 27.6035L64.1445 30.543L71.957 38.3555L74.8965 35.416C75.5996 34.7129 76 33.7461 76 32.75C76 31.7539 75.5996 30.7871 74.8965 30.084L72.416 27.6035ZM49.6621 35.0547C49.9648 34.752 50.4629 34.752 50.7656 35.0547L53.6367 37.9258L33.1094 58.4531C32.543 59.0195 32.1328 59.7129 31.918 60.4844L29.2031 69.9863L26.6836 72.4961C25.7656 73.4141 25.7656 74.8984 26.6836 75.8066C27.6016 76.7148 29.0859 76.7246 29.9941 75.8066L32.5039 73.2969L42.0156 70.582C42.7773 70.3672 43.4805 69.957 44.0469 69.3906L68.6465 44.791C69.3496 44.0879 69.75 43.1211 69.75 42.125C69.75 41.1289 69.3496 40.1621 68.6465 39.459L63.041 33.8535C62.3379 33.1504 61.3711 32.75 60.375 32.75C59.3789 32.75 58.4121 33.1504 57.709 33.8535L56.957 34.6055L54.0859 31.7441C51.9473 29.6055 48.4902 29.6055 46.3516 31.7441L36.0586 42.0273C35.1406 42.9453 35.1406 44.4297 36.0586 45.3379C36.9766 46.2461 38.4609 46.2559 39.3691 45.3379L49.6621 35.0547ZM34.7012 67.7988L36.3906 61.8906L40.6094 66.1094L34.7012 67.7988Z" fill="white"/>
</g>
<defs>
<clipPath id="clip0_2281_6339">
<rect width="50" height="50" fill="white" transform="translate(26 26.5)"/>
</clipPath>
</defs>
</svg>
