<svg width="79" height="78" viewBox="0 0 79 78" fill="none" xmlns="http://www.w3.org/2000/svg">
<rect width="78" height="78" transform="translate(0.333008)" fill="url(#paint0_linear_2280_5983)"/>
<path d="M15.6694 42.5156C14.4097 40.3379 14.4097 37.6621 15.6694 35.4844L24.2925 20.5527C25.5522 18.375 27.8667 17.0371 30.3862 17.0371H47.6323C50.1421 17.0371 52.4663 18.375 53.7261 20.5527L62.3296 35.4844C63.5894 37.6621 63.5894 40.3379 62.3296 42.5156L53.7065 57.4473C52.4468 59.625 50.1323 60.9629 47.6128 60.9629H30.3667C27.8569 60.9629 25.5327 59.625 24.2729 57.4473L15.6694 42.5156ZM50.0347 34.4102C50.9526 33.4922 50.9526 32.0078 50.0347 31.0996C49.1167 30.1914 47.6323 30.1816 46.7241 31.0996L35.8843 41.9395L31.2944 37.3496C30.3765 36.4316 28.8921 36.4316 27.9839 37.3496C27.0757 38.2676 27.0659 39.752 27.9839 40.6602L34.2339 46.9102C35.1519 47.8281 36.6362 47.8281 37.5444 46.9102L50.0347 34.4102Z" fill="#469EE1"/>
<defs>
<linearGradient id="paint0_linear_2280_5983" x1="24.1726" y1="-10.5746" x2="73.1503" y2="83.5776" gradientUnits="userSpaceOnUse">
<stop offset="0.108491" stop-color="#2A448F"/>
<stop offset="0.842736" stop-color="#182851"/>
</linearGradient>
</defs>
</svg>
