<svg width="132" height="116" viewBox="0 0 132 116" fill="none" xmlns="http://www.w3.org/2000/svg">
<rect width="131" height="116" transform="translate(0.988281)" fill="url(#paint0_linear_2280_6005)"/>
<path d="M80.7097 23.5859H52.2695V31.7106H80.7097V23.5859Z" fill="white"/>
<path d="M76.2696 38.4153L56.707 34.1491V31.7109H76.2696V38.4153Z" fill="#DD5457"/>
<path d="M76.2696 28.7998H56.707V63.4016H76.2696V28.7998Z" fill="white"/>
<path d="M76.2694 50.2061H56.7069L35.9473 87.8199C35.6866 88.2913 35.5533 88.8226 35.5608 89.3612C35.5684 89.8999 35.7163 90.4273 35.9901 90.8912C36.2639 91.3552 36.6541 91.7396 37.122 92.0065C37.5899 92.2735 38.1194 92.4137 38.6581 92.4132H94.3181C94.8568 92.4137 95.3863 92.2735 95.8542 92.0065C96.3222 91.7396 96.7123 91.3552 96.9861 90.8912C97.2599 90.4273 97.4079 89.8999 97.4154 89.3612C97.4229 88.8226 97.2897 88.2913 97.0289 87.8199L76.2694 50.2061Z" fill="white"/>
<path d="M76.2696 62.7969H56.7071L43.8748 86.4256C43.8007 86.5598 43.763 86.7111 43.7658 86.8645C43.7685 87.0178 43.8114 87.1677 43.8903 87.2992C43.9692 87.4306 44.0813 87.5391 44.2153 87.6136C44.3493 87.6882 44.5005 87.7262 44.6538 87.7239H88.3332C88.4865 87.7262 88.6378 87.6882 88.7718 87.6136C88.9058 87.5391 89.0178 87.4306 89.0967 87.2992C89.1756 87.1677 89.2186 87.0178 89.2213 86.8645C89.224 86.7111 89.1864 86.5598 89.1122 86.4256L76.2696 62.7969Z" fill="#469EE1"/>
<defs>
<linearGradient id="paint0_linear_2280_6005" x1="40.5976" y1="-15.7264" x2="108.204" y2="131.043" gradientUnits="userSpaceOnUse">
<stop offset="0.108491" stop-color="#2A448F"/>
<stop offset="0.842736" stop-color="#182851"/>
</linearGradient>
</defs>
</svg>
