<svg width="78" height="78" viewBox="0 0 78 78" fill="none" xmlns="http://www.w3.org/2000/svg">
<rect width="78" height="78" fill="url(#paint0_linear_2280_5974)"/>
<path d="M35.875 21.8125C35.875 19.2246 33.7754 17.125 31.1875 17.125H21.8125C19.2246 17.125 17.125 19.2246 17.125 21.8125V31.1875C17.125 33.7754 19.2246 35.875 21.8125 35.875H31.1875C33.7754 35.875 35.875 33.7754 35.875 31.1875V21.8125ZM35.875 46.8125C35.875 44.2246 33.7754 42.125 31.1875 42.125H21.8125C19.2246 42.125 17.125 44.2246 17.125 46.8125V56.1875C17.125 58.7754 19.2246 60.875 21.8125 60.875H31.1875C33.7754 60.875 35.875 58.7754 35.875 56.1875V46.8125ZM42.125 21.8125V31.1875C42.125 33.7754 44.2246 35.875 46.8125 35.875H56.1875C58.7754 35.875 60.875 33.7754 60.875 31.1875V21.8125C60.875 19.2246 58.7754 17.125 56.1875 17.125H46.8125C44.2246 17.125 42.125 19.2246 42.125 21.8125ZM60.875 46.8125C60.875 44.2246 58.7754 42.125 56.1875 42.125H46.8125C44.2246 42.125 42.125 44.2246 42.125 46.8125V56.1875C42.125 58.7754 44.2246 60.875 46.8125 60.875H56.1875C58.7754 60.875 60.875 58.7754 60.875 56.1875V46.8125Z" fill="#469EE1"/>
<defs>
<linearGradient id="paint0_linear_2280_5974" x1="24.1726" y1="-10.5746" x2="73.1503" y2="83.5776" gradientUnits="userSpaceOnUse">
<stop offset="0.108491" stop-color="#2A448F"/>
<stop offset="0.842736" stop-color="#182851"/>
</linearGradient>
</defs>
</svg>
