<svg width="79" height="78" viewBox="0 0 79 78" fill="none" xmlns="http://www.w3.org/2000/svg">
<rect width="78" height="78" transform="translate(0.666992)" fill="url(#paint0_linear_2280_5986)"/>
<g clip-path="url(#clip0_2280_5986)">
<path d="M20.917 20.25C20.917 18.5215 19.5205 17.125 17.792 17.125C16.0635 17.125 14.667 18.5215 14.667 20.25V53.0625C14.667 57.3789 18.1631 60.875 22.4795 60.875H61.542C63.2705 60.875 64.667 59.4785 64.667 57.75C64.667 56.0215 63.2705 54.625 61.542 54.625H22.4795C21.6201 54.625 20.917 53.9219 20.917 53.0625V20.25ZM33.417 32.75C34.2458 32.75 35.0406 32.4208 35.6267 31.8347C36.2128 31.2487 36.542 30.4538 36.542 29.625C36.542 28.7962 36.2128 28.0013 35.6267 27.4153C35.0406 26.8292 34.2458 26.5 33.417 26.5C32.5882 26.5 31.7933 26.8292 31.2073 27.4153C30.6212 28.0013 30.292 28.7962 30.292 29.625C30.292 30.4538 30.6212 31.2487 31.2073 31.8347C31.7933 32.4208 32.5882 32.75 33.417 32.75ZM45.917 39C45.917 38.1712 45.5878 37.3763 45.0017 36.7903C44.4156 36.2042 43.6208 35.875 42.792 35.875C41.9632 35.875 41.1683 36.2042 40.5823 36.7903C39.9962 37.3763 39.667 38.1712 39.667 39C39.667 39.8288 39.9962 40.6237 40.5823 41.2097C41.1683 41.7958 41.9632 42.125 42.792 42.125C43.6208 42.125 44.4156 41.7958 45.0017 41.2097C45.5878 40.6237 45.917 39.8288 45.917 39ZM52.167 48.375C52.9958 48.375 53.7906 48.0458 54.3767 47.4597C54.9628 46.8737 55.292 46.0788 55.292 45.25C55.292 44.4212 54.9628 43.6263 54.3767 43.0403C53.7906 42.4542 52.9958 42.125 52.167 42.125C51.3382 42.125 50.5433 42.4542 49.9573 43.0403C49.3712 43.6263 49.042 44.4212 49.042 45.25C49.042 46.0788 49.3712 46.8737 49.9573 47.4597C50.5433 48.0458 51.3382 48.375 52.167 48.375ZM58.417 26.5C58.417 25.6712 58.0878 24.8763 57.5017 24.2903C56.9156 23.7042 56.1208 23.375 55.292 23.375C54.4632 23.375 53.6683 23.7042 53.0823 24.2903C52.4962 24.8763 52.167 25.6712 52.167 26.5C52.167 27.3288 52.4962 28.1237 53.0823 28.7097C53.6683 29.2958 54.4632 29.625 55.292 29.625C56.1208 29.625 56.9156 29.2958 57.5017 28.7097C58.0878 28.1237 58.417 27.3288 58.417 26.5ZM30.292 48.375C31.1208 48.375 31.9156 48.0458 32.5017 47.4597C33.0878 46.8737 33.417 46.0788 33.417 45.25C33.417 44.4212 33.0878 43.6263 32.5017 43.0403C31.9156 42.4542 31.1208 42.125 30.292 42.125C29.4632 42.125 28.6683 42.4542 28.0823 43.0403C27.4962 43.6263 27.167 44.4212 27.167 45.25C27.167 46.0788 27.4962 46.8737 28.0823 47.4597C28.6683 48.0458 29.4632 48.375 30.292 48.375Z" fill="#D84190"/>
</g>
<defs>
<linearGradient id="paint0_linear_2280_5986" x1="24.1726" y1="-10.5746" x2="73.1503" y2="83.5776" gradientUnits="userSpaceOnUse">
<stop offset="0.108491" stop-color="#2A448F"/>
<stop offset="0.842736" stop-color="#182851"/>
</linearGradient>
<clipPath id="clip0_2280_5986">
<rect width="50" height="50" fill="white" transform="translate(14.667 14)"/>
</clipPath>
</defs>
</svg>
