<svg width="78" height="78" viewBox="0 0 78 78" fill="none" xmlns="http://www.w3.org/2000/svg">
<rect width="78" height="78" fill="url(#paint0_linear_2280_5989)"/>
<path d="M14 20.25C14 18.5215 15.3965 17.125 17.125 17.125H22.5938H27.2812H32.75C34.4785 17.125 35.875 18.5215 35.875 20.25C35.875 21.9785 34.4785 23.375 32.75 23.375V53.0625C32.75 57.3789 29.2539 60.875 24.9375 60.875C20.6211 60.875 17.125 57.3789 17.125 53.0625V23.375C15.3965 23.375 14 21.9785 14 20.25ZM27.2812 23.375H22.5938V39H27.2812V23.375ZM42.125 20.25C42.125 18.5215 43.5215 17.125 45.25 17.125H50.7188H55.4062H60.875C62.6035 17.125 64 18.5215 64 20.25C64 21.9785 62.6035 23.375 60.875 23.375V53.0625C60.875 57.3789 57.3789 60.875 53.0625 60.875C48.7461 60.875 45.25 57.3789 45.25 53.0625V23.375C43.5215 23.375 42.125 21.9785 42.125 20.25ZM55.4062 23.375H50.7188V39H55.4062V23.375Z" fill="#51E7F2"/>
<defs>
<linearGradient id="paint0_linear_2280_5989" x1="24.1726" y1="-10.5746" x2="73.1503" y2="83.5776" gradientUnits="userSpaceOnUse">
<stop offset="0.108491" stop-color="#2A448F"/>
<stop offset="0.842736" stop-color="#182851"/>
</linearGradient>
</defs>
</svg>
