<svg width="79" height="78" viewBox="0 0 79 78" fill="none" xmlns="http://www.w3.org/2000/svg">
<rect width="78" height="78" transform="translate(0.666992)" fill="url(#paint0_linear_2280_5977)"/>
<g clip-path="url(#clip0_2280_5977)">
<path d="M18.125 23.3746H49.375V17.1246C49.375 15.8648 50.1367 14.7222 51.3086 14.234C52.4805 13.7457 53.8184 14.0191 54.7168 14.9078L64.0918 24.2828C64.6777 24.8687 65.0098 25.6597 65.0098 26.4898C65.0098 27.3199 64.6777 28.1109 64.0918 28.6968L54.7168 38.0718C53.8184 38.9703 52.4805 39.234 51.3086 38.7457C50.1367 38.2574 49.375 37.1246 49.375 35.855V29.605L18.125 29.6246C16.3965 29.6246 15 28.2281 15 26.4996C15 24.7711 16.3965 23.3746 18.125 23.3746ZM61.875 48.3746C63.6035 48.3746 65 49.7711 65 51.4996C65 53.2281 63.6035 54.6246 61.875 54.6246H30.625V60.8746C30.625 62.1343 29.8633 63.2769 28.6914 63.7652C27.5195 64.2535 26.1816 63.98 25.2832 63.0914L15.9082 53.7164C15.3223 53.1304 14.9902 52.3394 14.9902 51.5093C14.9902 50.6793 15.3223 49.8882 15.9082 49.3023L25.2832 39.9273C26.1816 39.0289 27.5195 38.7652 28.6914 39.2535C29.8633 39.7418 30.625 40.8746 30.625 42.1441V48.3941H61.875V48.3746Z" fill="#FBB040"/>
</g>
<defs>
<linearGradient id="paint0_linear_2280_5977" x1="24.1726" y1="-10.5746" x2="73.1503" y2="83.5776" gradientUnits="userSpaceOnUse">
<stop offset="0.108491" stop-color="#2A448F"/>
<stop offset="0.842736" stop-color="#182851"/>
</linearGradient>
<clipPath id="clip0_2280_5977">
<rect width="50" height="50" fill="white" transform="translate(15 14)"/>
</clipPath>
</defs>
</svg>
