<svg width="79" height="78" viewBox="0 0 79 78" fill="none" xmlns="http://www.w3.org/2000/svg">
<rect width="78" height="78" transform="translate(0.333008)" fill="url(#paint0_linear_2280_5980)"/>
<g clip-path="url(#clip0_2280_5980)">
<path d="M26.5005 14C24.772 14 23.3755 15.3965 23.3755 17.125C23.3755 18.8535 24.772 20.25 26.5005 20.25H31.4517L11.7935 39.918C10.5728 41.1387 10.5728 43.1211 11.7935 44.3418C13.0142 45.5625 14.9966 45.5625 16.2173 44.3418L35.8755 24.6738V29.625C35.8755 31.3535 37.272 32.75 39.0005 32.75C40.729 32.75 42.1255 31.3535 42.1255 29.625V17.125C42.1255 15.3965 40.729 14 39.0005 14H26.5005ZM67.1255 21.8125C67.1255 20.5693 66.6316 19.377 65.7525 18.4979C64.8735 17.6189 63.6812 17.125 62.438 17.125C61.1948 17.125 60.0025 17.6189 59.1234 18.4979C58.2443 19.377 57.7505 20.5693 57.7505 21.8125C57.7505 23.0557 58.2443 24.248 59.1234 25.1271C60.0025 26.0061 61.1948 26.5 62.438 26.5C63.6812 26.5 64.8735 26.0061 65.7525 25.1271C66.6316 24.248 67.1255 23.0557 67.1255 21.8125ZM54.6255 34.3125C54.6255 33.6969 54.5042 33.0874 54.2687 32.5187C54.0331 31.95 53.6878 31.4332 53.2526 30.9979C52.8173 30.5627 52.3005 30.2174 51.7318 29.9818C51.1631 29.7462 50.5536 29.625 49.938 29.625C49.3224 29.625 48.7129 29.7462 48.1442 29.9818C47.5754 30.2174 47.0587 30.5627 46.6234 30.9979C46.1882 31.4332 45.8429 31.95 45.6073 32.5187C45.3717 33.0874 45.2505 33.6969 45.2505 34.3125C45.2505 34.9281 45.3717 35.5376 45.6073 36.1063C45.8429 36.675 46.1882 37.1918 46.6234 37.6271C47.0587 38.0623 47.5754 38.4076 48.1442 38.6432C48.7129 38.8788 49.3224 39 49.938 39C50.5536 39 51.1631 38.8788 51.7318 38.6432C52.3005 38.4076 52.8173 38.0623 53.2526 37.6271C53.6878 37.1918 54.0331 36.675 54.2687 36.1063C54.5042 35.5376 54.6255 34.9281 54.6255 34.3125ZM49.938 51.5C51.1812 51.5 52.3735 51.0061 53.2526 50.1271C54.1316 49.248 54.6255 48.0557 54.6255 46.8125C54.6255 45.5693 54.1316 44.377 53.2526 43.4979C52.3735 42.6189 51.1812 42.125 49.938 42.125C48.6948 42.125 47.5025 42.6189 46.6234 43.4979C45.7443 44.377 45.2505 45.5693 45.2505 46.8125C45.2505 48.0557 45.7443 49.248 46.6234 50.1271C47.5025 51.0061 48.6948 51.5 49.938 51.5ZM54.6255 59.3125C54.6255 58.6969 54.5042 58.0874 54.2687 57.5187C54.0331 56.95 53.6878 56.4332 53.2526 55.9979C52.8173 55.5627 52.3005 55.2174 51.7318 54.9818C51.1631 54.7462 50.5536 54.625 49.938 54.625C49.3224 54.625 48.7129 54.7462 48.1442 54.9818C47.5754 55.2174 47.0587 55.5627 46.6234 55.9979C46.1882 56.4332 45.8429 56.95 45.6073 57.5187C45.3717 58.0874 45.2505 58.6969 45.2505 59.3125C45.2505 59.9281 45.3717 60.5376 45.6073 61.1063C45.8429 61.675 46.1882 62.1918 46.6234 62.6271C47.0587 63.0623 47.5754 63.4076 48.1442 63.6432C48.7129 63.8788 49.3224 64 49.938 64C50.5536 64 51.1631 63.8788 51.7318 63.6432C52.3005 63.4076 52.8173 63.0623 53.2526 62.6271C53.6878 62.1918 54.0331 61.675 54.2687 61.1063C54.5042 60.5376 54.6255 59.9281 54.6255 59.3125ZM67.1255 59.3125C67.1255 58.0693 66.6316 56.877 65.7525 55.9979C64.8735 55.1189 63.6812 54.625 62.438 54.625C61.1948 54.625 60.0025 55.1189 59.1234 55.9979C58.2443 56.877 57.7505 58.0693 57.7505 59.3125C57.7505 60.5557 58.2443 61.748 59.1234 62.6271C60.0025 63.5061 61.1948 64 62.438 64C63.6812 64 64.8735 63.5061 65.7525 62.6271C66.6316 61.748 67.1255 60.5557 67.1255 59.3125ZM37.438 51.5C38.6812 51.5 39.8735 51.0061 40.7526 50.1271C41.6316 49.248 42.1255 48.0557 42.1255 46.8125C42.1255 45.5693 41.6316 44.377 40.7526 43.4979C39.8735 42.6189 38.6812 42.125 37.438 42.125C36.1948 42.125 35.0025 42.6189 34.1234 43.4979C33.2443 44.377 32.7505 45.5693 32.7505 46.8125C32.7505 48.0557 33.2443 49.248 34.1234 50.1271C35.0025 51.0061 36.1948 51.5 37.438 51.5ZM42.1255 59.3125C42.1255 58.0693 41.6316 56.877 40.7526 55.9979C39.8735 55.1189 38.6812 54.625 37.438 54.625C36.1948 54.625 35.0025 55.1189 34.1234 55.9979C33.2443 56.877 32.7505 58.0693 32.7505 59.3125C32.7505 60.5557 33.2443 61.748 34.1234 62.6271C35.0025 63.5061 36.1948 64 37.438 64C38.6812 64 39.8735 63.5061 40.7526 62.6271C41.6316 61.748 42.1255 60.5557 42.1255 59.3125ZM24.938 64C26.1812 64 27.3735 63.5061 28.2526 62.6271C29.1316 61.748 29.6255 60.5557 29.6255 59.3125C29.6255 58.0693 29.1316 56.877 28.2526 55.9979C27.3735 55.1189 26.1812 54.625 24.938 54.625C23.6948 54.625 22.5025 55.1189 21.6234 55.9979C20.7443 56.877 20.2505 58.0693 20.2505 59.3125C20.2505 60.5557 20.7443 61.748 21.6234 62.6271C22.5025 63.5061 23.6948 64 24.938 64ZM67.1255 46.8125C67.1255 45.5693 66.6316 44.377 65.7525 43.4979C64.8735 42.6189 63.6812 42.125 62.438 42.125C61.1948 42.125 60.0025 42.6189 59.1234 43.4979C58.2443 44.377 57.7505 45.5693 57.7505 46.8125C57.7505 48.0557 58.2443 49.248 59.1234 50.1271C60.0025 51.0061 61.1948 51.5 62.438 51.5C63.6812 51.5 64.8735 51.0061 65.7525 50.1271C66.6316 49.248 67.1255 48.0557 67.1255 46.8125ZM62.438 39C63.6812 39 64.8735 38.5061 65.7525 37.6271C66.6316 36.748 67.1255 35.5557 67.1255 34.3125C67.1255 33.0693 66.6316 31.877 65.7525 30.9979C64.8735 30.1189 63.6812 29.625 62.438 29.625C61.1948 29.625 60.0025 30.1189 59.1234 30.9979C58.2443 31.877 57.7505 33.0693 57.7505 34.3125C57.7505 35.5557 58.2443 36.748 59.1234 37.6271C60.0025 38.5061 61.1948 39 62.438 39Z" fill="#9FC363"/>
</g>
<defs>
<linearGradient id="paint0_linear_2280_5980" x1="24.1726" y1="-10.5746" x2="73.1503" y2="83.5776" gradientUnits="userSpaceOnUse">
<stop offset="0.108491" stop-color="#2A448F"/>
<stop offset="0.842736" stop-color="#182851"/>
</linearGradient>
<clipPath id="clip0_2280_5980">
<rect width="56.25" height="50" fill="white" transform="translate(10.875 14)"/>
</clipPath>
</defs>
</svg>
