<svg width="32" height="32" viewBox="0 0 32 32" fill="none" xmlns="http://www.w3.org/2000/svg">
<circle cx="16" cy="16" r="9.75305" fill="#EBF4F7"/>
<path d="M0 16C0 20.2435 1.68571 24.3131 4.68629 27.3137C7.68687 30.3143 11.7565 32 16 32C20.2435 32 24.3131 30.3143 27.3137 27.3137C30.3143 24.3131 32 20.2435 32 16C32 11.7565 30.3143 7.68687 27.3137 4.68629C24.3131 1.68571 20.2435 0 16 0C11.7565 0 7.68687 1.68571 4.68629 4.68629C1.68571 7.68687 0 11.7565 0 16ZM18.5625 24.0625C17.975 24.65 17.025 24.65 16.4438 24.0625C15.8625 23.475 15.8563 22.525 16.4438 21.9438L20.8813 17.5063L7.5 17.5C6.66875 17.5 6 16.8312 6 16C6 15.1687 6.66875 14.5 7.5 14.5H20.8813L16.4438 10.0625C15.8563 9.475 15.8563 8.525 16.4438 7.94375C17.0312 7.3625 17.9813 7.35625 18.5625 7.94375L25.5625 14.9375C26.15 15.525 26.15 16.475 25.5625 17.0562L18.5625 24.0625Z" fill="#223A81"/>
</svg>
