<svg width="56" height="56" viewBox="0 0 56 56" fill="none" xmlns="http://www.w3.org/2000/svg">
<path d="M19.8865 7.39026C19.2007 5.73366 17.3927 4.85192 15.6648 5.32396L7.82714 7.46151C6.27742 7.88902 5.19974 9.29624 5.19974 10.8994C5.19974 32.9339 23.0661 50.8003 45.1006 50.8003C46.7038 50.8003 48.111 49.7226 48.5385 48.1729L50.676 40.3352C51.1481 38.6073 50.2664 36.7993 48.6098 36.1135L40.0596 32.551C38.6078 31.9453 36.9245 32.3639 35.9359 33.5841L32.3377 37.975C26.0675 35.0091 20.9909 29.9325 18.025 23.6623L22.4159 20.073C23.6361 19.0755 24.0547 17.4011 23.449 15.9494L19.8865 7.39917V7.39026Z" fill="#469EE1"/>
</svg>
