<svg width="41" height="42" viewBox="0 0 41 42" fill="none" xmlns="http://www.w3.org/2000/svg">
<g clip-path="url(#clip0_1424_10569)">
<circle cx="20.165" cy="21" r="15.9655" fill="white"/>
<path d="M20.165 41.165C25.5131 41.165 30.6422 39.0405 34.4238 35.2588C38.2055 31.4771 40.33 26.3481 40.33 21C40.33 15.6519 38.2055 10.5228 34.4238 6.74116C30.6422 2.95948 25.5131 0.834961 20.165 0.834961C14.8169 0.834961 9.68787 2.95948 5.90619 6.74116C2.12452 10.5228 0 15.6519 0 21C0 26.3481 2.12452 31.4771 5.90619 35.2588C9.68787 39.0405 14.8169 41.165 20.165 41.165ZM29.066 17.2978L18.9835 27.3803C18.243 28.1207 17.0457 28.1207 16.3132 27.3803L11.2719 22.3391C10.5315 21.5986 10.5315 20.4013 11.2719 19.6688C12.0124 18.9362 13.2097 18.9283 13.9422 19.6688L17.6444 23.3709L26.3878 14.6196C27.1282 13.8792 28.3255 13.8792 29.0581 14.6196C29.7906 15.3601 29.7985 16.5574 29.0581 17.2899L29.066 17.2978Z" fill="#469EE1"/>
</g>
<defs>
<clipPath id="clip0_1424_10569">
<rect width="40.33" height="40.33" fill="white" transform="translate(0 0.834961)"/>
</clipPath>
</defs>
</svg>
