<svg width="52" height="52" viewBox="0 0 52 52" fill="none" xmlns="http://www.w3.org/2000/svg">
<g clip-path="url(#clip0_1672_15913)">
<circle cx="26" cy="25.9999" r="17.4618" fill="white"/>
<path d="M0 26C0 19.1044 2.73928 12.4912 7.61522 7.61522C12.4912 2.73928 19.1044 0 26 0C32.8956 0 39.5088 2.73928 44.3848 7.61522C49.2607 12.4912 52 19.1044 52 26C52 32.8956 49.2607 39.5088 44.3848 44.3848C39.5088 49.2607 32.8956 52 26 52C19.1044 52 12.4912 49.2607 7.61522 44.3848C2.73928 39.5088 0 32.8956 0 26ZM19.1242 14.9398C18.3523 15.3664 17.875 16.1891 17.875 17.0625V34.9375C17.875 35.8211 18.3523 36.6336 19.1242 37.0602C19.8961 37.4867 20.8305 37.4766 21.5922 37.0094L36.2172 28.0719C36.9383 27.625 37.3852 26.843 37.3852 25.9898C37.3852 25.1367 36.9383 24.3547 36.2172 23.9078L21.5922 14.9703C20.8406 14.5133 19.8961 14.493 19.1242 14.9195V14.9398Z" fill="#E25456"/>
</g>
<defs>
<clipPath id="clip0_1672_15913">
<rect width="52" height="52" fill="white"/>
</clipPath>
</defs>
</svg>
