<svg width="60" height="60" viewBox="0 0 60 60" fill="none" xmlns="http://www.w3.org/2000/svg">
<g clip-path="url(#clip0_1672_15910)">
<path d="M26.6836 1.37109C28.5117 -0.457031 31.4766 -0.457031 33.3164 1.37109L58.6289 26.6836C60.457 28.5117 60.457 31.4766 58.6289 33.3164L33.3164 58.6289C31.4883 60.457 28.5234 60.457 26.6836 58.6289L1.37109 33.3164C-0.457031 31.4883 -0.457031 28.5234 1.37109 26.6836L26.6836 1.37109ZM36.9492 17.4258C36.4102 16.8867 35.6016 16.7344 34.9102 17.0156C34.2188 17.2969 33.75 17.9883 33.75 18.75V25.3125H26.25C22.1133 25.3125 18.75 28.6758 18.75 32.8125V38.4375C18.75 39.9961 20.0039 41.25 21.5625 41.25C23.1211 41.25 24.375 39.9961 24.375 38.4375V32.8125C24.375 31.7812 25.2188 30.9375 26.25 30.9375H33.75V37.5C33.75 38.2617 34.207 38.9414 34.9102 39.2344C35.6133 39.5273 36.4219 39.3633 36.9492 38.8242L46.3242 29.4492C47.0508 28.7227 47.0508 27.5273 46.3242 26.8008L36.9492 17.4258Z" fill="#FBB040"/>
</g>
<defs>
<clipPath id="clip0_1672_15910">
<rect width="60" height="60" fill="white"/>
</clipPath>
</defs>
</svg>
