<svg xmlns="http://www.w3.org/2000/svg" width="385" height="358" fill="none" viewBox="0 0 385 358"><rect width="383" height="356" x="1" y="1" fill="#223A81"/><rect width="383" height="356" x="1" y="1" stroke="#253A79" stroke-width="2"/><g clip-path="url(#clip0_2224_5227)"><path fill="#E6E7E8" d="M60 237.99H106.195V199.408H60L60 237.99Z"/><path fill="#E6E7E8" d="M133.215 237.99H179.409V199.408H133.215V237.99Z"/><path fill="#E6E7E8" d="M324.99 199.417H278.795V238H324.99V199.417Z"/><path fill="#E6E7E8" d="M205.591 153.106H179.399V238H205.591V153.106Z"/><path fill="#51E7F2" d="M192.495 112.818H188.832L179.399 153.106H192.495V112.818Z"/><path fill="#51E7F2" d="M192.495 112.818H196.168L205.601 153.106H192.495V112.818Z"/><path fill="#E6E7E8" d="M251.795 199.417H205.601V238H251.795V199.417Z"/><path fill="#939598" d="M205.601 199.417V237.99H225.214L205.601 199.417Z"/><path fill="#939598" d="M278.795 199.417V237.99H298.419L278.795 199.417Z"/><path fill="#939598" d="M59.7905 199.417V237.99H79.4142L59.7905 199.417Z"/><path fill="#939598" d="M132.995 199.417V237.99H152.609L132.995 199.417Z"/><path fill="#E6E7E8" d="M278.805 185.925H251.795V238H278.805V185.925Z"/><path fill="#E6E7E8" d="M352 185.925H324.99V238H352V185.925Z"/><path fill="#51E7F2" d="M271.629 171.724H258.962L251.795 185.925H278.795L271.629 171.724Z"/><path fill="#51E7F2" d="M344.823 171.724H332.167L324.99 185.925H352L344.823 171.724Z"/><path fill="#51E7F2" d="M251.795 185.925H205.601V199.417H251.795V185.925Z"/><path fill="#51E7F2" d="M324.99 185.925H278.795V199.417H324.99V185.925Z"/><path fill="#E6E7E8" d="M106.195 237.99H133.205V185.915H106.195V237.99Z"/><path fill="#E6E7E8" d="M33 237.99H60.0101L60.0101 185.915H33L33 237.99Z"/><path fill="#51E7F2" d="M113.371 171.724H126.038L133.205 185.925H106.205L113.371 171.724Z"/><path fill="#51E7F2" d="M40.1767 171.724H52.8333L60.01 185.925H33L40.1767 171.724Z"/><path fill="#51E7F2" d="M133.215 199.407H179.409V185.915H133.215V199.407Z"/><path fill="#51E7F2" d="M60 199.407H106.195V185.915H60V199.407Z"/><path fill="#E25456" d="M215.403 87H192.495V99.8343H215.403V87Z"/></g><defs><clipPath id="clip0_2224_5227"><rect width="319" height="151" fill="#fff" transform="translate(33 87)"/></clipPath></defs></svg>