<svg width="1200" height="242" viewBox="0 0 1200 242" fill="none" xmlns="http://www.w3.org/2000/svg">
<g clip-path="url(#clip0_1084_7134)">
<path d="M388.178 241.683H462.051V179.926H388.178V241.683Z" fill="#2D468E"/>
<path d="M505.26 241.683H579.133V179.926H505.26V241.683Z" fill="#2D468E"/>
<path d="M811.941 179.941H738.068V241.699H811.941V179.941Z" fill="#2D468E"/>
<path d="M621.002 105.813H579.117V241.699H621.002V105.813Z" fill="#2D468E"/>
<path d="M600.06 41.3259H594.201L579.117 105.813H600.06V41.3259Z" fill="#395AB8"/>
<path d="M600.06 41.3259H605.934L621.018 105.813H600.06V41.3259Z" fill="#395AB8"/>
<path d="M694.89 179.941H621.017V241.699H694.89V179.941Z" fill="#2D468E"/>
<path d="M621.017 179.941V241.683H652.382L621.017 179.941Z" fill="#10172D" fill-opacity="0.5"/>
<path d="M738.068 179.941V241.683H769.45L738.068 179.941Z" fill="#10172D" fill-opacity="0.5"/>
<path d="M387.842 179.941V241.683H419.223L387.842 179.941Z" fill="#10172D" fill-opacity="0.5"/>
<path d="M504.908 179.941V241.683H536.274L504.908 179.941Z" fill="#10172D" fill-opacity="0.5"/>
<path d="M738.085 158.345H694.892V241.699H738.085V158.345Z" fill="#2D468E"/>
<path d="M855.135 158.345H811.941V241.699H855.135V158.345Z" fill="#2D468E"/>
<path d="M726.608 135.615H706.352L694.892 158.345H738.069L726.608 135.615Z" fill="#395AB8"/>
<path d="M843.658 135.615H823.418L811.941 158.345H855.135L843.658 135.615Z" fill="#395AB8"/>
<path d="M694.89 158.345H621.017V179.941H694.89V158.345Z" fill="#395AB8"/>
<path d="M811.941 158.345H738.068V179.941H811.941V158.345Z" fill="#395AB8"/>
<path d="M462.05 241.683H505.244V158.329H462.05V241.683Z" fill="#2D468E"/>
<path d="M345.001 241.683H388.194V158.329H345.001V241.683Z" fill="#2D468E"/>
<path d="M473.527 135.615H493.783L505.244 158.345H462.066L473.527 135.615Z" fill="#395AB8"/>
<path d="M356.477 135.615H376.717L388.194 158.345H345L356.477 135.615Z" fill="#395AB8"/>
<path d="M505.26 179.926H579.133V158.329H505.26V179.926Z" fill="#395AB8"/>
<path d="M388.178 179.926H462.051V158.329H388.178V179.926Z" fill="#395AB8"/>
<path d="M636.693 0H600.06V20.5433H636.693V0Z" fill="#D84E50"/>
<path d="M626.43 0H610.43V21H626.43V0Z" fill="white"/>
</g>
<rect x="1026.88" y="127.785" width="51.2442" height="52.6291" fill="#2D468E"/>
<path d="M1039.69 102.163H1065.1L1078.12 127.785H1026.88L1039.69 102.163Z" fill="#395AB8"/>
<rect x="905" y="180.414" width="295" height="61.2853" fill="#2D468E"/>
<rect x="938.24" y="152.022" width="81.3674" height="89.6773" fill="#2D468E"/>
<rect x="1086.78" y="152.022" width="81.3674" height="89.6773" fill="#2D468E"/>
<path d="M958.321 118.436H998.843L1019.61 152.022H937.893L958.321 118.436Z" fill="#395AB8"/>
<path d="M1106.86 118.436H1147.38L1168.15 152.022H1086.43L1106.86 118.436Z" fill="#395AB8"/>
<path d="M1040.73 241.699L1020.3 180.414V241.699H1040.73Z" fill="#10172D" fill-opacity="0.5"/>
<path d="M1189.27 241.699L1168.84 180.414V241.699H1189.27Z" fill="#10172D" fill-opacity="0.5"/>
<path d="M100.765 101.849H179.603L220 145.057H61.0195L100.765 101.849Z" fill="#395AB8"/>
<rect x="36.6113" y="145.058" width="207.796" height="96.6418" fill="#2D468E"/>
<rect y="156.272" width="77.5113" height="85.4274" fill="#2D468E"/>
<rect x="205.488" y="156.272" width="77.5113" height="85.4274" fill="#2D468E"/>
<path d="M96.973 241.699L77.5127 156.272V241.699H96.973Z" fill="#10172D" fill-opacity="0.5"/>
<path d="M39.086 119.33L77.5118 156.272H0.660156L39.086 119.33Z" fill="#395AB8"/>
<path d="M244.572 119.33L282.998 156.272H206.146L244.572 119.33Z" fill="#395AB8"/>
<rect x="136.222" y="171.444" width="10.5547" height="55.4124" fill="#10172D" fill-opacity="0.5"/>
<rect x="161.95" y="171.444" width="10.5547" height="55.4124" fill="#10172D" fill-opacity="0.5"/>
<rect x="239.46" y="171.444" width="10.5547" height="55.4124" fill="#10172D" fill-opacity="0.5"/>
<rect x="110.495" y="171.444" width="10.5547" height="55.4124" fill="#10172D" fill-opacity="0.5"/>
<rect x="33.6416" y="171.444" width="10.5547" height="55.4124" fill="#10172D" fill-opacity="0.5"/>
<defs>
<clipPath id="clip0_1084_7134">
<rect width="510.135" height="241.699" fill="white" transform="translate(345)"/>
</clipPath>
</defs>
</svg>
