<svg width="386" height="245" viewBox="0 0 386 245" fill="none" xmlns="http://www.w3.org/2000/svg">
<rect width="386" height="244" transform="translate(0 0.167969)" fill="#055668"/>
<path d="M68.0054 55.4404H258.524C277.875 55.4404 293.562 71.1274 293.562 90.4783V90.4783C293.562 109.829 277.875 125.516 258.524 125.516H101.401C82.957 125.516 68.0054 140.468 68.0054 158.912V158.912C68.0054 177.355 82.957 192.307 101.401 192.307H293.562" stroke="#51E7F2" stroke-width="17"/>
<circle cx="70.1952" cy="54.3461" r="12.0443" fill="white"/>
<circle cx="293.562" cy="192.307" r="12.0443" fill="white"/>
<circle cx="211.913" cy="54.3461" r="12.0443" fill="white"/>
<circle cx="137.069" cy="123.874" r="12.0443" fill="white"/>
<circle cx="199.869" cy="192.307" r="12.0443" fill="white"/>
<path d="M224.306 113.972C227 109.305 233.736 109.305 236.43 113.972L246.093 130.709C248.787 135.375 245.42 141.209 240.031 141.209H220.705C215.316 141.209 211.948 135.375 214.643 130.709L224.306 113.972Z" fill="#D84E50"/>
</svg>
