<svg width="115" height="110" viewBox="0 0 115 110" fill="none" xmlns="http://www.w3.org/2000/svg">
<rect width="115" height="110" fill="#A4D1F5"/>
<circle opacity="0.2" cx="57.5005" cy="55" r="45.0435" fill="white"/>
<circle opacity="0.4" cx="57.5009" cy="55" r="34.6924" fill="white"/>
<circle cx="57.5002" cy="55" r="26.1204" fill="white"/>
<g clip-path="url(#clip0_2281_6323)">
<path d="M66.4962 61.7458C66.6715 61.5705 73.873 55.2666 73.873 55.2666L72.6459 54.7406C71.9447 54.397 72.127 53.9342 72.2953 53.5205C72.4636 52.9876 73.7047 48.8013 73.7047 48.8013C73.7047 48.8013 70.3599 49.5025 69.6587 49.6779C69.1328 49.8461 68.9575 49.5025 68.7822 49.1519C68.6069 48.8013 67.7304 46.88 67.7304 46.88C67.7304 46.88 64.042 51.0803 63.8667 51.2486C63.1654 51.7745 62.4572 51.2486 62.6325 50.5474C62.6325 49.8461 64.5679 41.4596 64.5679 41.4596C64.5679 41.4596 62.4572 42.6797 61.756 43.0303C61.2301 43.3809 60.8725 43.3809 60.5218 42.6797C60.1642 42.1538 57.5276 37.084 57.5276 37.084C57.5276 37.084 54.8981 42.1538 54.5475 42.6797C54.1969 43.3809 53.8463 43.3809 53.3133 43.0303C52.6121 42.6797 50.5014 41.4596 50.5014 41.4596C50.5014 41.4596 52.4368 49.8461 52.4368 50.5474C52.6121 51.2486 51.9109 51.7745 51.2027 51.2486C51.0274 51.0733 47.339 46.88 47.339 46.88C47.339 46.88 46.4624 48.7943 46.2871 49.1449C46.1118 49.4955 45.9365 49.8391 45.4106 49.6708C44.7024 49.4955 41.3646 48.7943 41.3646 48.7943C41.3646 48.7943 42.5987 52.9806 42.774 53.5135C42.9423 53.9342 43.1246 54.39 42.4234 54.7336L41.1963 55.2666C41.1963 55.2666 48.3908 61.5705 48.5731 61.7458C48.9307 62.0964 49.2743 62.2717 48.9307 63.3235C48.5731 64.3754 48.2225 65.7848 48.2225 65.7848C48.2225 65.7848 54.8981 64.3754 55.6063 64.2001C56.2164 64.137 56.8895 64.3754 56.8895 65.0766C56.8895 65.7778 56.4828 72.9863 56.4828 72.9863H58.5865C58.5865 72.9863 58.1798 65.7848 58.1798 65.0766C58.1798 64.3684 58.8459 64.137 59.47 64.2001C60.1712 64.3754 66.8468 65.7848 66.8468 65.7848C66.8468 65.7848 66.4962 64.3754 66.1456 63.3235C65.795 62.2717 66.1456 62.0964 66.4962 61.7458Z" fill="#E25456"/>
</g>
<defs>
<clipPath id="clip0_2281_6323">
<rect width="35.9023" height="35.9023" fill="white" transform="translate(39.584 37.084)"/>
</clipPath>
</defs>
</svg>
