<svg width="284" height="178" viewBox="0 0 284 178" fill="none" xmlns="http://www.w3.org/2000/svg">
<rect width="284" height="178" fill="url(#paint0_linear_2280_5965)"/>
<g clip-path="url(#clip0_2280_5965)">
<path d="M81.6416 123.639V53.4109L142.46 18.2979L203.278 53.4109V123.639L142.46 158.752L81.6416 123.639Z" fill="url(#paint1_linear_2280_5965)"/>
<path d="M142.46 20.7938L201.115 54.6597V122.39L142.46 156.256L83.8039 122.39V54.6597L142.46 20.7938ZM142.46 15.7998L79.4785 52.1618V124.886L142.46 161.248L205.441 124.886V52.1618L142.46 15.7998Z" fill="#253C7C"/>
<path d="M96.0596 115.314V61.7356L142.46 34.9453L188.861 61.7356V115.314L142.46 142.105L96.0596 115.314Z" fill="#253C7C"/>
<path d="M142.46 37.4432L186.697 62.9846V114.066L142.46 139.607L98.2219 114.066V62.9846L142.46 37.4432ZM142.46 32.4492L93.8965 60.4867V116.563L142.46 144.601L191.023 116.563V60.4867L142.46 32.4492Z" fill="#E25456"/>
<path d="M110.478 106.989V70.0595L142.46 51.5938L174.443 70.0595V106.989L142.46 125.455L110.478 106.989Z" fill="#253C7C"/>
<path d="M142.46 54.0907L172.28 71.3075V105.741L142.46 122.958L112.64 105.741V71.3075L142.46 54.0907ZM142.46 49.0967L108.314 68.8114V108.239L142.46 127.954L176.605 108.239V68.8114L142.46 49.0967Z" fill="#51E7F2"/>
<path d="M142.46 73.6789C150.646 73.6789 157.307 80.3382 157.307 88.5258C157.307 96.7133 150.648 103.373 142.46 103.373C134.273 103.373 127.613 96.7133 127.613 88.5258C127.613 80.3382 134.273 73.6789 142.46 73.6789ZM142.46 69.3535C131.872 69.3535 123.288 77.9376 123.288 88.5258C123.288 99.1139 131.872 107.698 142.46 107.698C153.048 107.698 161.633 99.1139 161.633 88.5258C161.633 77.9376 153.048 69.3535 142.46 69.3535Z" fill="white"/>
</g>
<defs>
<linearGradient id="paint0_linear_2280_5965" x1="88.0132" y1="-24.1318" x2="168.47" y2="222.638" gradientUnits="userSpaceOnUse">
<stop offset="0.108491" stop-color="#2A448F"/>
<stop offset="0.842736" stop-color="#182851"/>
</linearGradient>
<linearGradient id="paint1_linear_2280_5965" x1="108.706" y1="139.136" x2="179.192" y2="33.4475" gradientUnits="userSpaceOnUse">
<stop offset="0.13" stop-color="#182851"/>
<stop offset="1" stop-color="#2A448F"/>
</linearGradient>
<clipPath id="clip0_2280_5965">
<rect width="125.962" height="145.45" fill="white" transform="translate(79.4785 15.7998)"/>
</clipPath>
</defs>
</svg>
