<svg width="282" height="245" viewBox="0 0 282 245" fill="none" xmlns="http://www.w3.org/2000/svg">
<rect width="281.446" height="244" transform="translate(0 0.167969)" fill="#51E7F2"/>
<g clip-path="url(#clip0_2279_5572)">
<path d="M73.9292 57.3635C73.9292 53.054 70.4621 49.5869 66.1526 49.5869C61.8431 49.5869 58.376 53.054 58.376 57.3635V171.421C58.376 184.317 68.8096 194.751 81.7058 194.751H216.501C220.81 194.751 224.277 191.283 224.277 186.974C224.277 182.664 220.81 179.197 216.501 179.197H81.7058C77.3963 179.197 73.9292 175.73 73.9292 171.421V57.3635ZM162.064 135.13C162.064 139.439 165.531 142.906 169.841 142.906H206.132C210.441 142.906 213.908 139.439 213.908 135.13V98.8389C213.908 94.5293 210.441 91.0622 206.132 91.0622C201.822 91.0622 198.355 94.5293 198.355 98.8389V116.369L162.388 80.3694C159.342 77.3235 154.417 77.3235 151.404 80.3694L125.806 105.967L105.392 85.5538C102.346 82.5079 97.4211 82.5079 94.4077 85.5538C91.3942 88.5996 91.3618 93.5248 94.4077 96.5383L120.33 122.46C123.376 125.506 128.301 125.506 131.314 122.46L156.912 96.8623L187.371 127.353H169.841C165.531 127.353 162.064 130.82 162.064 135.13Z" fill="#D84E50"/>
</g>
<defs>
<clipPath id="clip0_2279_5572">
<rect width="165.901" height="165.901" fill="white" transform="translate(58.376 39.2178)"/>
</clipPath>
</defs>
</svg>
