<svg width="347" height="301" viewBox="0 0 347 301" fill="none" xmlns="http://www.w3.org/2000/svg">
<g clip-path="url(#clip0_360_29)">
<path d="M86.66 214.1L117.9 268.2H55.43L86.67 214.1M86.67 150.1L0 300.21H173.32L86.66 150.11L86.67 150.1Z" fill="white"/>
<path d="M259.99 214.1L291.23 268.2H228.76L260 214.1M260 150.1L173.34 300.2H346.66L260 150.1Z" fill="#51E7F2"/>
<path d="M173.32 64L204.56 118.1H142.09L173.33 64M173.33 0L86.6699 150.1H259.99L173.32 0L173.33 0Z" fill="#E25456"/>
<path d="M204.56 182.1L173.32 236.2L142.08 182.1H204.55M259.98 150.1H86.6602L173.32 300.2L259.98 150.1Z" fill="#469EE1"/>
</g>
<defs>
<clipPath id="clip0_360_29">
<rect width="346.65" height="300.21" fill="white"/>
</clipPath>
</defs>
</svg>
