<svg width="131" height="117" viewBox="0 0 131 117" fill="none" xmlns="http://www.w3.org/2000/svg">
<rect width="131" height="116" transform="translate(0 0.857422)" fill="#D84E50"/>
<path d="M79.7214 24.4434H51.2812V32.568H79.7214V24.4434Z" fill="white"/>
<path d="M75.2813 39.2727L55.7188 35.0065V32.5684H75.2813V39.2727Z" fill="#DD5457"/>
<path d="M75.2813 29.6572H55.7188V64.259H75.2813V29.6572Z" fill="white"/>
<path d="M75.2813 51.0635H55.7188L34.9593 88.6773C34.6985 89.1487 34.5653 89.68 34.5728 90.2187C34.5803 90.7573 34.7283 91.2847 35.0021 91.7486C35.2759 92.2126 35.666 92.597 36.134 92.864C36.6019 93.1309 37.1314 93.2711 37.6701 93.2706H93.3301C93.8688 93.2711 94.3983 93.1309 94.8662 92.864C95.3341 92.597 95.7243 92.2126 95.9981 91.7486C96.2719 91.2847 96.4199 90.7573 96.4274 90.2187C96.4349 89.68 96.3017 89.1487 96.0409 88.6773L75.2813 51.0635Z" fill="white"/>
<path d="M75.2813 63.6543H55.7188L42.8866 87.283C42.8124 87.4172 42.7748 87.5686 42.7775 87.7219C42.7802 87.8752 42.8231 88.0251 42.902 88.1566C42.9809 88.2881 43.093 88.3965 43.227 88.4711C43.361 88.5456 43.5122 88.5836 43.6655 88.5813H87.3449C87.4983 88.5836 87.6495 88.5456 87.7835 88.4711C87.9175 88.3965 88.0295 88.2881 88.1084 88.1566C88.1873 88.0251 88.2303 87.8752 88.233 87.7219C88.2357 87.5686 88.1981 87.4172 88.1239 87.283L75.2813 63.6543Z" fill="#619AD0"/>
</svg>
