<svg width="150" height="108" viewBox="0 0 150 108" fill="none" xmlns="http://www.w3.org/2000/svg">
<rect width="150" height="106.842" transform="translate(0 0.699219)" fill="#A4D1F5"/>
<rect width="150" height="106.842" transform="translate(0 0.699219)" fill="url(#paint0_linear_2265_5551)" fill-opacity="0.2"/>
<g clip-path="url(#clip0_2265_5551)">
<path d="M75.2631 27.8037C79.046 27.8037 82.3354 29.9316 83.9904 33.0566C87.3724 32.0183 91.1964 32.8407 93.8691 35.5134C96.5418 38.1861 97.3642 42.0204 96.326 45.3921C99.451 47.0471 101.579 50.3366 101.579 54.1195C101.579 57.9024 99.451 61.1919 96.326 62.8469C97.3642 66.2289 96.5418 70.0529 93.8691 72.7256C91.1964 75.3983 87.3622 76.2207 83.9904 75.1824C82.3354 78.3074 79.046 80.4353 75.2631 80.4353C71.4802 80.4353 68.1907 78.3074 66.5357 75.1824C63.1537 76.2207 59.3297 75.3983 56.657 72.7256C53.9843 70.0529 53.1619 66.2186 54.2001 62.8469C51.0751 61.1919 48.9473 57.9024 48.9473 54.1195C48.9473 50.3366 51.0751 47.0471 54.2001 45.3921C53.1619 42.0101 53.9843 38.1861 56.657 35.5134C59.3297 32.8407 63.164 32.0183 66.5357 33.0566C68.1907 29.9316 71.4802 27.8037 75.2631 27.8037ZM77.4115 42.2363C77.4115 41.1055 76.4863 40.1804 75.3556 40.1804C74.2248 40.1804 73.2997 41.1055 73.2997 42.2363V44.0249C72.395 44.21 71.4802 44.5183 70.6578 45.0118C69.1159 45.9267 67.8103 47.52 67.8206 49.8329C67.8309 52.043 69.1159 53.441 70.5242 54.2943C71.7474 55.0344 73.2997 55.497 74.5435 55.8773L74.7388 55.939C76.1677 56.3707 77.247 56.7202 77.9974 57.1931C78.6245 57.5837 78.7684 57.8921 78.7787 58.3239C78.789 58.992 78.5217 59.3929 77.9974 59.7219C77.3807 60.1022 76.4349 60.3284 75.4172 60.2975C74.1117 60.2564 72.8885 59.8452 71.3362 59.3107C71.069 59.2182 70.8017 59.1257 70.5139 59.0332C69.4345 58.6734 68.2729 59.2593 67.9131 60.3284C67.5534 61.3975 68.1393 62.5693 69.2084 62.9291C69.4345 63.0011 69.6709 63.0833 69.9074 63.1656C70.9045 63.5048 72.0558 63.9057 73.2791 64.1524V66.0027C73.2791 67.1335 74.2043 68.0586 75.335 68.0586C76.4658 68.0586 77.3909 67.1335 77.3909 66.0027V64.2449C78.3469 64.0702 79.3029 63.7412 80.1459 63.2067C81.7186 62.2301 82.9008 60.5648 82.87 58.2622C82.8391 56.0418 81.5953 54.6026 80.1664 53.7083C78.8815 52.8962 77.2573 52.4131 75.9723 52.0225L75.9107 52.0019C74.4612 51.5599 73.3819 51.2309 72.6315 50.7786C71.9941 50.3983 71.9119 50.131 71.9119 49.8226C71.9119 49.2984 72.1278 48.918 72.724 48.5582C73.3922 48.1676 74.3687 47.9415 75.2939 47.962C76.4144 47.9826 77.6479 48.2293 78.9123 48.5582C80.0122 48.8461 81.1327 48.1984 81.4308 47.0985C81.7289 45.9986 81.071 44.8781 79.9711 44.58C79.1693 44.3642 78.2955 44.1586 77.3909 44.0249V42.2466L77.4115 42.2363Z" fill="white"/>
</g>
<defs>
<linearGradient id="paint0_linear_2265_5551" x1="29.4636" y1="7.0065" x2="132.38" y2="115.288" gradientUnits="userSpaceOnUse">
<stop stop-color="#4DFF00"/>
<stop offset="1" stop-color="#A4D1F5"/>
</linearGradient>
<clipPath id="clip0_2265_5551">
<rect width="52.6316" height="52.6316" fill="white" transform="translate(48.9473 27.8037)"/>
</clipPath>
</defs>
</svg>
