<svg width="150" height="110" viewBox="0 0 150 110" fill="none" xmlns="http://www.w3.org/2000/svg">
<rect width="150" height="108.75" transform="translate(0 0.384766)" fill="#1F3269"/>
<rect width="150" height="108.75" transform="translate(0 0.384766)" fill="url(#paint0_linear_2265_5558)" fill-opacity="0.2"/>
<g clip-path="url(#clip0_2265_5558)">
<path d="M48.2144 53.5288C48.2144 46.9122 53.6552 41.543 60.36 41.543C63.5827 41.543 66.6714 42.8068 68.9482 45.0536L75.0001 51.0176L81.0436 45.0536C83.3288 42.8068 86.4175 41.543 89.6401 41.543C96.3449 41.543 101.786 46.9122 101.786 53.5288V55.9821C101.786 62.607 96.3449 67.9762 89.6401 67.9762C86.4175 67.9762 83.3288 66.7124 81.052 64.4656L75.0001 58.5016L68.9565 64.4656C66.6714 66.7124 63.5827 67.9762 60.36 67.9762C53.6552 67.9762 48.2144 62.607 48.2144 55.9904V53.5371V53.5288ZM71.2082 54.7596L65.1647 48.7956C63.8924 47.54 62.1597 46.8296 60.36 46.8296C56.61 46.8296 53.5715 49.8281 53.5715 53.5288V55.9821C53.5715 59.6828 56.61 62.6813 60.36 62.6813C62.1597 62.6813 63.8924 61.9792 65.1647 60.7154L71.2082 54.7596ZM78.7836 54.7596L84.8271 60.7236C86.0994 61.9792 87.8321 62.6896 89.6318 62.6896C93.3818 62.6896 96.4203 59.6911 96.4203 55.9904V53.5371C96.4203 49.8364 93.3818 46.8379 89.6318 46.8379C87.8321 46.8379 86.0994 47.54 84.8271 48.8039L78.7919 54.7596H78.7836Z" fill="#9FC363"/>
</g>
<defs>
<linearGradient id="paint0_linear_2265_5558" x1="13.6826" y1="3.21504" x2="134.359" y2="115.215" gradientUnits="userSpaceOnUse">
<stop stop-color="#FF00FB"/>
<stop offset="1" stop-color="#1F3269"/>
</linearGradient>
<clipPath id="clip0_2265_5558">
<rect width="53.5714" height="42.2932" fill="white" transform="translate(48.2144 33.6133)"/>
</clipPath>
</defs>
</svg>
