<svg width="150" height="108" viewBox="0 0 150 108" fill="none" xmlns="http://www.w3.org/2000/svg">
<rect width="150" height="106.842" transform="translate(0 0.857422)" fill="#D84E50"/>
<rect width="150" height="106.842" transform="translate(0 0.857422)" fill="url(#paint0_linear_2265_5548)" fill-opacity="0.2"/>
<g clip-path="url(#clip0_2265_5548)">
<path d="M60.5262 36.8189C60.4348 34.9911 60.38 33.0542 60.38 30.999H89.6198C89.6198 33.0542 89.5649 34.9911 89.4736 36.8189H99.1227H101.316V39.0013C101.316 51.2321 94.8829 57.8885 88.4776 61.3804C85.3252 63.0991 82.191 64.0448 79.861 64.5631C79.3219 64.6813 78.8285 64.7814 78.3807 64.8632C78.2254 64.945 78.07 65.0269 77.9147 65.0996V71.747H84.4937H86.6866V73.9294V75.3844V77.5668H84.4937H65.4878H63.2948V75.3844V73.9294V71.747H65.4878H72.0668V65.0996C71.9114 65.0269 71.7652 64.945 71.6007 64.8632C71.153 64.7814 70.6596 64.6904 70.1205 64.5631C67.7904 64.0448 64.6563 63.0991 61.5039 61.3804C55.1168 57.8885 48.6841 51.2321 48.6841 39.0013V36.8189H50.8771H60.5262ZM60.8551 41.1837H53.1431C53.8285 50.0863 58.7078 54.8785 63.6146 57.5429C64.2725 57.9067 64.9396 58.225 65.5975 58.5159C63.5233 54.8513 61.6866 49.377 60.8551 41.1837ZM84.3931 58.5159C85.051 58.225 85.7089 57.9067 86.376 57.5429C91.2828 54.8695 96.1622 50.0863 96.8475 41.1837H89.1355C88.304 49.377 86.4673 54.8513 84.3931 58.5159Z" fill="#51E7F2"/>
</g>
<defs>
<linearGradient id="paint0_linear_2265_5548" x1="8.98237" y1="-6.71707" x2="132.38" y2="115.288" gradientUnits="userSpaceOnUse">
<stop stop-color="#FFDB0C"/>
<stop offset="1" stop-color="#D85050"/>
</linearGradient>
<clipPath id="clip0_2265_5548">
<rect width="52.6316" height="46.5587" fill="white" transform="translate(48.6841 30.999)"/>
</clipPath>
</defs>
</svg>
