<svg width="78" height="78" viewBox="0 0 78 78" fill="none" xmlns="http://www.w3.org/2000/svg">
<rect width="78" height="78" fill="#FBB040"/>
<g clip-path="url(#clip0_2279_5877)">
<path d="M24.9375 61.5L24.9375 16.5C24.9375 14.9443 23.6807 13.6875 22.125 13.6875C20.5693 13.6875 19.3125 14.9443 19.3125 16.5L19.3125 61.5C19.3125 63.0557 20.5693 64.3125 22.125 64.3125C23.6807 64.3125 24.9375 63.0557 24.9375 61.5ZM37.0137 63.4863C38.1123 64.585 39.8965 64.585 40.9951 63.4863C42.0938 62.3877 42.0938 60.6035 40.9951 59.5049L37.3564 55.875L55.875 55.875C57.4307 55.875 58.6875 54.6182 58.6875 53.0625C58.6875 51.5068 57.4307 50.25 55.875 50.25L37.3564 50.25L40.9951 46.6113C42.0938 45.5127 42.0938 43.7285 40.9951 42.6299C39.8965 41.5312 38.1123 41.5312 37.0137 42.6299L28.5762 51.0674C27.4775 52.166 27.4775 53.9502 28.5762 55.0488L37.0137 63.4863ZM40.9951 35.3613C42.0937 34.2627 42.0937 32.4785 40.9951 31.3799L37.3564 27.75L55.875 27.75C57.4307 27.75 58.6875 26.4932 58.6875 24.9375C58.6875 23.3818 57.4307 22.125 55.875 22.125L37.3564 22.125L40.9951 18.4863C42.0937 17.3877 42.0937 15.6035 40.9951 14.5049C39.8965 13.4062 38.1123 13.4062 37.0137 14.5049L28.5762 22.9424C27.4775 24.041 27.4775 25.8252 28.5762 26.9238L37.0137 35.3613C38.1123 36.46 39.8965 36.46 40.9951 35.3613Z" fill="#E25456"/>
</g>
<defs>
<clipPath id="clip0_2279_5877">
<rect width="50.625" height="45" fill="white" transform="translate(16.5 64.3125) rotate(-90)"/>
</clipPath>
</defs>
</svg>
