<svg width="78" height="78" viewBox="0 0 78 78" fill="none" xmlns="http://www.w3.org/2000/svg">
<rect width="78" height="78" fill="#1F3269"/>
<g clip-path="url(#clip0_2279_5892)">
<path d="M46.7344 16.5H59.3906C60.5596 16.5 61.5 17.4404 61.5 18.6094V31.2656C61.5 32.1182 60.9902 32.8916 60.1992 33.2168C59.4082 33.542 58.5029 33.3662 57.8965 32.7598L54.4688 29.332L46.8223 36.9785C45.9961 37.8047 44.6602 37.8047 43.8428 36.9785L41.0303 34.166C40.2041 33.3398 40.2041 32.0039 41.0303 31.1865L48.6768 23.54L45.2402 20.1035C44.6338 19.4971 44.458 18.5918 44.7832 17.8008C45.1084 17.0098 45.8818 16.5 46.7344 16.5ZM31.2656 61.5H18.6094C17.4404 61.5 16.5 60.5596 16.5 59.3906V46.7344C16.5 45.8818 17.0098 45.1084 17.8008 44.7832C18.5918 44.458 19.4971 44.6338 20.1035 45.2402L23.5312 48.668L31.1777 41.0215C32.0039 40.1953 33.3398 40.1953 34.1572 41.0215L36.9697 43.834C37.7959 44.6602 37.7959 45.9961 36.9697 46.8135L29.3232 54.46L32.751 57.8877C33.3574 58.4941 33.5332 59.3994 33.208 60.1904C32.8828 60.9814 32.1094 61.4912 31.2568 61.4912L31.2656 61.5Z" fill="#51E7F2"/>
</g>
<defs>
<clipPath id="clip0_2279_5892">
<rect width="45" height="45" fill="white" transform="translate(16.5 16.5)"/>
</clipPath>
</defs>
</svg>
