<svg width="78" height="78" viewBox="0 0 78 78" fill="none" xmlns="http://www.w3.org/2000/svg">
<rect width="78" height="78" fill="#51E7F2"/>
<g clip-path="url(#clip0_2279_5886)">
<path d="M15.0938 20.7188H22.8281C23.9971 20.7188 24.9375 19.7783 24.9375 18.6094C24.9375 17.4404 23.9971 16.5 22.8281 16.5H13.6875C12.1318 16.5 10.875 17.7568 10.875 19.3125V28.4531C10.875 29.6221 11.8154 30.5625 12.9844 30.5625C14.1533 30.5625 15.0938 29.6221 15.0938 28.4531V20.7188ZM26.3262 36.1875C26.8802 36.1875 27.4288 36.0784 27.9406 35.8664C28.4525 35.6544 28.9175 35.3436 29.3093 34.9519C29.701 34.5601 30.0118 34.095 30.2238 33.5832C30.4358 33.0714 30.5449 32.5228 30.5449 31.9688C30.5449 31.4147 30.4358 30.8661 30.2238 30.3543C30.0118 29.8425 29.701 29.3774 29.3093 28.9856C28.9175 28.5939 28.4525 28.2831 27.9406 28.0711C27.4288 27.8591 26.8802 27.75 26.3262 27.75C25.7722 27.75 25.2236 27.8591 24.7117 28.0711C24.1999 28.2831 23.7348 28.5939 23.3431 28.9856C22.9513 29.3774 22.6406 29.8425 22.4286 30.3543C22.2165 30.8661 22.1074 31.4147 22.1074 31.9688C22.1074 32.5228 22.2165 33.0714 22.4286 33.5832C22.6406 34.095 22.9513 34.5601 23.3431 34.9519C23.7348 35.3436 24.1999 35.6544 24.7117 35.8664C25.2236 36.0784 25.7722 36.1875 26.3262 36.1875ZM23.9971 39C21.4131 39 19.3125 41.1006 19.3125 43.6846C19.3125 44.9766 20.3584 46.0312 21.6592 46.0312H26.5898C27.293 43.0342 29.4727 40.6084 32.3203 39.5625C31.6611 39.2021 30.8965 39 30.0967 39H24.0059H23.9971ZM56.3408 46.0312C57.6328 46.0312 58.6875 44.9854 58.6875 43.6846C58.6875 41.0918 56.5869 39 54.0029 39H47.9121C47.1035 39 46.3477 39.2021 45.6885 39.5625C48.5361 40.6084 50.7158 43.0342 51.4189 46.0312H56.3496H56.3408ZM48.4834 46.0312C47.7275 43.8955 45.8555 42.2871 43.5703 41.9004C43.2275 41.8389 42.876 41.8125 42.5156 41.8125H35.4844C35.124 41.8125 34.7725 41.8389 34.4297 41.9004C32.1445 42.2871 30.2725 43.8955 29.5166 46.0312C29.2793 46.6904 29.1562 47.4023 29.1562 48.1406C29.1562 49.3096 30.0967 50.25 31.2656 50.25H46.7344C47.9033 50.25 48.8438 49.3096 48.8438 48.1406C48.8438 47.4023 48.7207 46.6904 48.4834 46.0312ZM51.6562 36.1875C52.2103 36.1875 52.7589 36.0784 53.2707 35.8664C53.7825 35.6544 54.2476 35.3436 54.6394 34.9519C55.0311 34.5601 55.3419 34.095 55.5539 33.5832C55.7659 33.0714 55.875 32.5228 55.875 31.9688C55.875 31.4147 55.7659 30.8661 55.5539 30.3543C55.3419 29.8425 55.0311 29.3774 54.6394 28.9856C54.2476 28.5939 53.7825 28.2831 53.2707 28.0711C52.7589 27.8591 52.2103 27.75 51.6562 27.75C51.1022 27.75 50.5536 27.8591 50.0418 28.0711C49.53 28.2831 49.0649 28.5939 48.6731 28.9856C48.2814 29.3774 47.9706 29.8425 47.7586 30.3543C47.5466 30.8661 47.4375 31.4147 47.4375 31.9688C47.4375 32.5228 47.5466 33.0714 47.7586 33.5832C47.9706 34.095 48.2814 34.5601 48.6731 34.9519C49.0649 35.3436 49.53 35.6544 50.0418 35.8664C50.5536 36.0784 51.1022 36.1875 51.6562 36.1875ZM44.625 33.375C44.625 31.8832 44.0324 30.4524 42.9775 29.3975C41.9226 28.3426 40.4918 27.75 39 27.75C37.5082 27.75 36.0774 28.3426 35.0225 29.3975C33.9676 30.4524 33.375 31.8832 33.375 33.375C33.375 34.8668 33.9676 36.2976 35.0225 37.3525C36.0774 38.4074 37.5082 39 39 39C40.4918 39 41.9226 38.4074 42.9775 37.3525C44.0324 36.2976 44.625 34.8668 44.625 33.375ZM55.1719 20.7188H62.9062V28.4531C62.9062 29.6221 63.8467 30.5625 65.0156 30.5625C66.1846 30.5625 67.125 29.6221 67.125 28.4531V19.3125C67.125 17.7568 65.8682 16.5 64.3125 16.5H55.1719C54.0029 16.5 53.0625 17.4404 53.0625 18.6094C53.0625 19.7783 54.0029 20.7188 55.1719 20.7188ZM15.0938 57.2812V49.5469C15.0938 48.3779 14.1533 47.4375 12.9844 47.4375C11.8154 47.4375 10.875 48.3779 10.875 49.5469V58.6875C10.875 60.2432 12.1318 61.5 13.6875 61.5H22.8281C23.9971 61.5 24.9375 60.5596 24.9375 59.3906C24.9375 58.2217 23.9971 57.2812 22.8281 57.2812H15.0938ZM55.1719 57.2812C54.0029 57.2812 53.0625 58.2217 53.0625 59.3906C53.0625 60.5596 54.0029 61.5 55.1719 61.5H64.3125C65.8682 61.5 67.125 60.2432 67.125 58.6875V49.5469C67.125 48.3779 66.1846 47.4375 65.0156 47.4375C63.8467 47.4375 62.9062 48.3779 62.9062 49.5469V57.2812H55.1719Z" fill="#1F3269"/>
</g>
<defs>
<clipPath id="clip0_2279_5886">
<rect width="56.25" height="45" fill="white" transform="translate(10.875 16.5)"/>
</clipPath>
</defs>
</svg>
