<svg width="78" height="78" viewBox="0 0 78 78" fill="none" xmlns="http://www.w3.org/2000/svg">
<rect width="78" height="78" fill="#055668"/>
<path d="M28.8961 21.0889H53.8445C59.0444 21.0889 63.2598 25.3042 63.2598 30.5041V30.5041C63.2598 35.704 59.0444 39.9194 53.8445 39.9194H25.272C19.7491 39.9194 15.272 44.3965 15.272 49.9194V51.1797C15.272 56.7025 19.7491 61.1797 25.272 61.1797H41.9127" stroke="#51E7F2" stroke-width="6"/>
<rect x="12.0151" y="14.5801" width="13.0166" height="13.0166" rx="2" fill="#51E7F2"/>
<path d="M60.2598 59.4473C61.5931 60.2171 61.5931 62.1416 60.2598 62.9114L49.857 68.9174C48.5237 69.6872 46.857 68.725 46.857 67.1854L46.857 55.1733C46.857 53.6337 48.5237 52.6714 49.857 53.4412L60.2598 59.4473Z" fill="#51E7F2"/>
</svg>
