<svg width="78" height="78" viewBox="0 0 78 78" fill="none" xmlns="http://www.w3.org/2000/svg">
<rect width="78" height="78" fill="#D84190"/>
<g clip-path="url(#clip0_2279_5883)">
<path d="M16.5 22.125C16.5 19.0225 19.0225 16.5 22.125 16.5H55.875C58.9775 16.5 61.5 19.0225 61.5 22.125V47.4375C61.5 50.54 58.9775 53.0625 55.875 53.0625H43.6846L32.8125 61.2187C32.3906 61.5352 31.8193 61.5879 31.3359 61.3506C30.8525 61.1133 30.5625 60.6299 30.5625 60.0938V53.0625H22.125C19.0225 53.0625 16.5 50.54 16.5 47.4375L16.5 22.125ZM46.4531 27.3105C45.1611 26.0186 43.0605 26.0186 41.7686 27.3105L40.459 28.6289L45.1436 33.3135L46.4531 32.0039C47.7451 30.7119 47.7451 28.6113 46.4531 27.3193V27.3105ZM32.1533 36.9346C31.793 37.2949 31.5381 37.7432 31.415 38.2441L30.6064 41.4609C30.4834 41.9443 30.624 42.4453 30.9756 42.7969C31.3271 43.1484 31.8281 43.2891 32.3115 43.166L35.5283 42.3574C36.0205 42.2344 36.4775 41.9795 36.8379 41.6191L43.1572 35.2998L38.4727 30.6152L32.1533 36.9346Z" fill="#51E7F2"/>
</g>
<defs>
<clipPath id="clip0_2279_5883">
<rect width="45" height="45" fill="white" transform="translate(16.5 16.5)"/>
</clipPath>
</defs>
</svg>
