<svg xmlns="http://www.w3.org/2000/svg" width="131" height="116" fill="none" viewBox="0 0 131 116"><rect width="131" height="116" fill="#0B6D83"/><path fill="#fff" d="M79.7214 23.5859H51.2812V31.7106H79.7214V23.5859Z"/><path fill="#DD5457" d="M75.2813 38.4153L55.7188 34.1491V31.7109H75.2813V38.4153Z"/><path fill="#fff" d="M75.2813 28.7998H55.7188V63.4016H75.2813V28.7998Z"/><path fill="#fff" d="M75.2811 50.2061H55.7186L34.959 87.8199C34.6983 88.2913 34.5651 88.8226 34.5726 89.3612C34.5801 89.8999 34.728 90.4273 35.0018 90.8912C35.2756 91.3552 35.6658 91.7396 36.1337 92.0065C36.6016 92.2735 37.1312 92.4137 37.6699 92.4132H93.3298C93.8685 92.4137 94.398 92.2735 94.866 92.0065C95.3339 91.7396 95.724 91.3552 95.9978 90.8912C96.2717 90.4273 96.4196 89.8999 96.4271 89.3612C96.4346 88.8226 96.3014 88.2913 96.0406 87.8199L75.2811 50.2061Z"/><path fill="#D84E50" d="M75.2813 62.7969H55.7188L42.8866 86.4256C42.8124 86.5598 42.7748 86.7111 42.7775 86.8645C42.7802 87.0178 42.8231 87.1677 42.902 87.2992C42.9809 87.4306 43.093 87.5391 43.227 87.6136C43.361 87.6882 43.5122 87.7262 43.6655 87.7239H87.3449C87.4983 87.7262 87.6495 87.6882 87.7835 87.6136C87.9175 87.5391 88.0295 87.4306 88.1084 87.2992C88.1873 87.1677 88.2303 87.0178 88.233 86.8645C88.2357 86.7111 88.1981 86.5598 88.1239 86.4256L75.2813 62.7969Z"/></svg>