<svg width="78" height="78" viewBox="0 0 78 78" fill="none" xmlns="http://www.w3.org/2000/svg">
<rect width="78" height="78" fill="white"/>
<g clip-path="url(#clip0_2279_5880)">
<path d="M55.6377 36.1875H50.25C48.6943 36.1875 47.4375 37.4443 47.4375 39C47.4375 40.5557 48.6943 41.8125 50.25 41.8125H55.6377C54.46 48.8789 48.8789 54.46 41.8125 55.6377V50.25C41.8125 48.6943 40.5557 47.4375 39 47.4375C37.4443 47.4375 36.1875 48.6943 36.1875 50.25V55.6377C29.1211 54.46 23.54 48.8789 22.3623 41.8125H27.75C29.3057 41.8125 30.5625 40.5557 30.5625 39C30.5625 37.4443 29.3057 36.1875 27.75 36.1875H22.3623C23.54 29.1211 29.1211 23.54 36.1875 22.3623V27.75C36.1875 29.3057 37.4443 30.5625 39 30.5625C40.5557 30.5625 41.8125 29.3057 41.8125 27.75V22.3623C48.8789 23.54 54.46 29.1211 55.6377 36.1875ZM16.5 39C16.5 44.9674 18.8705 50.6903 23.0901 54.9099C27.3097 59.1295 33.0326 61.5 39 61.5C44.9674 61.5 50.6903 59.1295 54.9099 54.9099C59.1295 50.6903 61.5 44.9674 61.5 39C61.5 33.0326 59.1295 27.3097 54.9099 23.0901C50.6903 18.8705 44.9674 16.5 39 16.5C33.0326 16.5 27.3097 18.8705 23.0901 23.0901C18.8705 27.3097 16.5 33.0326 16.5 39Z" fill="#D84E50"/>
</g>
<defs>
<clipPath id="clip0_2279_5880">
<rect width="45" height="45" fill="white" transform="translate(16.5 16.5)"/>
</clipPath>
</defs>
</svg>
