<svg width="78" height="78" viewBox="0 0 78 78" fill="none" xmlns="http://www.w3.org/2000/svg">
<rect width="78" height="78" fill="#469EE1"/>
<g clip-path="url(#clip0_2279_5889)">
<path d="M16.5 22.125C16.5 20.5693 17.7568 19.3125 19.3125 19.3125H24.9375H30.5625H36.1875C37.7432 19.3125 39 20.5693 39 22.125C39 23.6807 37.7432 24.9375 36.1875 24.9375V39.9492C34.4121 42.4629 33.375 45.5303 33.375 48.8438C33.375 51.0586 33.8408 53.1592 34.6758 55.0664C33.1553 57.2549 30.6152 58.6875 27.75 58.6875C23.0918 58.6875 19.3125 54.9082 19.3125 50.25V24.9375C17.7568 24.9375 16.5 23.6807 16.5 22.125ZM24.9375 24.9375V33.375H30.5625V24.9375H24.9375ZM36.1875 48.8438C36.1875 45.4871 37.5209 42.2679 39.8944 39.8944C42.2679 37.5209 45.4871 36.1875 48.8438 36.1875C52.2004 36.1875 55.4196 37.5209 57.7931 39.8944C60.1666 42.2679 61.5 45.4871 61.5 48.8438C61.5 52.2004 60.1666 55.4196 57.7931 57.7931C55.4196 60.1666 52.2004 61.5 48.8438 61.5C45.4871 61.5 42.2679 60.1666 39.8944 57.7931C37.5209 55.4196 36.1875 52.2004 36.1875 48.8438ZM54.7588 45.0381C54.2139 44.4932 53.3174 44.4932 52.7725 45.0381L47.4375 50.373L44.915 47.8506C44.3701 47.3057 43.4736 47.3057 42.9287 47.8506C42.3838 48.3955 42.3838 49.292 42.9287 49.8369L46.4443 53.3525C46.9893 53.8975 47.8857 53.8975 48.4307 53.3525L54.7588 47.0244C55.3037 46.4795 55.3037 45.583 54.7588 45.0381Z" fill="#51E7F2"/>
</g>
<defs>
<clipPath id="clip0_2279_5889">
<rect width="45" height="45" fill="white" transform="translate(16.5 16.5)"/>
</clipPath>
</defs>
</svg>
