<svg width="78" height="78" viewBox="0 0 78 78" fill="none" xmlns="http://www.w3.org/2000/svg">
<rect width="78" height="78" fill="#E25456"/>
<g clip-path="url(#clip0_2279_5895)">
<path d="M17.3278 31.5788C17.6931 30.591 18.133 29.6447 18.6393 28.7317L19.0295 28.0593C19.5773 27.1463 20.1915 26.283 20.8639 25.4695C21.3536 24.8719 22.1671 24.6727 22.8975 24.9051L27.521 26.3743C28.6332 25.5194 29.8617 24.8055 31.1732 24.266L32.2108 19.5263C32.3768 18.771 32.9579 18.1733 33.7215 18.0488C34.867 17.8496 36.0457 17.75 37.2493 17.75C38.4528 17.75 39.6315 17.8496 40.777 18.0405C41.5407 18.165 42.1217 18.7627 42.2877 19.518L43.3253 24.2577C44.6368 24.7972 45.8653 25.5111 46.9775 26.366L51.601 24.8968C52.3314 24.6644 53.1449 24.8719 53.6346 25.4612C54.307 26.2747 54.9212 27.138 55.4691 28.051L55.8592 28.7234C56.3655 29.6364 56.8054 30.5827 57.1707 31.5705L57.1624 31.5788C57.428 32.3009 57.2039 33.1061 56.6311 33.6207L56.5398 33.7037C48.7622 34.0275 42.5616 40.4355 42.5616 48.2962C42.5616 50.1804 42.9186 51.9733 43.566 53.6252C43.483 53.6584 43.4 53.6999 43.317 53.7331L42.2794 58.4727C42.1134 59.2281 41.5324 59.8257 40.7687 59.9502C39.6232 60.1411 38.4445 60.2407 37.241 60.2407C36.0374 60.2407 34.8587 60.1411 33.7132 59.9502C32.9495 59.8257 32.3685 59.2281 32.2025 58.4727L31.1649 53.7331C29.8534 53.1935 28.6249 52.4797 27.5127 51.6247L22.8975 53.1022C22.1671 53.3346 21.3536 53.1271 20.8639 52.5378C20.1915 51.7243 19.5773 50.8611 19.0295 49.948L18.6393 49.2756C18.133 48.3626 17.6931 47.4163 17.3278 46.4285C17.0622 45.7064 17.2863 44.9012 17.8591 44.3866L21.4532 41.1162C21.3619 40.4189 21.3121 39.7134 21.3121 38.9995C21.3121 38.2857 21.3619 37.5801 21.4532 36.8912L17.8591 33.6207C17.2863 33.1061 17.0622 32.3009 17.3278 31.5788ZM31.4969 35.6793C30.31 37.7378 30.31 40.2612 31.4969 42.3197C32.6839 44.3783 34.8753 45.64 37.2493 45.64C39.6232 45.64 41.8146 44.3783 43.0016 42.3197C44.1885 40.2612 44.1885 37.7378 43.0016 35.6793C41.8146 33.6207 39.6232 32.359 37.2493 32.359C34.8753 32.359 32.6839 33.6207 31.4969 35.6793ZM45.2178 48.2962C45.2178 41.6972 50.5717 36.3433 57.1707 36.3433C63.7696 36.3433 69.1235 41.6972 69.1235 48.2962C69.1235 54.8951 63.7696 60.249 57.1707 60.249C50.5717 60.249 45.2178 54.8951 45.2178 48.2962ZM55.1785 54.2726C55.1785 55.3766 56.0667 56.2647 57.1707 56.2647C58.2747 56.2647 59.1628 55.3766 59.1628 54.2726C59.1628 53.1686 58.2747 52.2805 57.1707 52.2805C56.0667 52.2805 55.1785 53.1686 55.1785 54.2726ZM55.8426 41.6557V48.2962C55.8426 49.0266 56.4402 49.6243 57.1707 49.6243C57.9011 49.6243 58.4988 49.0266 58.4988 48.2962V41.6557C58.4988 40.9252 57.9011 40.3276 57.1707 40.3276C56.4402 40.3276 55.8426 40.9252 55.8426 41.6557Z" fill="#FBB040"/>
</g>
<defs>
<clipPath id="clip0_2279_5895">
<rect width="53.1238" height="42.499" fill="white" transform="translate(16 17.75)"/>
</clipPath>
</defs>
</svg>
