<svg width="2614" height="658" viewBox="0 0 2614 658" fill="none" xmlns="http://www.w3.org/2000/svg">
<path d="M2483.6 4.34082H2578.53V204.783H2483.6V4.34082ZM2319.31 104.562L2313.83 106.489C2313.83 106.489 2346.69 135.399 2346.69 137.327C2348.51 139.254 2350.34 139.254 2348.51 145.036C2346.69 150.818 2344.86 156.6 2344.86 156.6C2344.86 156.6 2374.07 150.818 2377.72 148.89C2381.37 148.89 2383.2 148.89 2383.2 152.745C2383.2 156.6 2381.37 189.364 2381.37 189.364H2390.5C2390.5 189.364 2388.68 154.672 2388.68 152.745C2388.68 148.89 2390.5 148.89 2394.15 148.89C2397.8 148.89 2427.01 156.6 2427.01 156.6C2427.01 156.6 2425.19 148.89 2423.36 145.036C2421.53 139.254 2423.36 139.254 2425.19 137.327C2427.01 135.399 2458.04 106.489 2458.04 106.489L2452.57 104.562C2448.92 102.635 2450.74 100.707 2450.74 98.7799C2450.74 96.8526 2456.22 77.5793 2456.22 77.5793C2456.22 77.5793 2441.62 81.434 2439.79 81.434C2437.96 81.434 2436.14 81.434 2436.14 79.5066C2436.14 77.5793 2432.49 69.87 2432.49 69.87C2432.49 69.87 2416.06 89.1433 2414.23 91.0706C2410.58 94.9253 2406.93 91.0706 2408.76 87.216C2408.76 83.3613 2417.88 42.8874 2417.88 42.8874C2417.88 42.8874 2408.76 48.6694 2405.11 50.5967C2401.45 52.524 2399.63 52.524 2399.63 48.6694C2397.8 44.8147 2386.85 23.6141 2386.85 21.6868C2386.85 21.6868 2375.9 44.8147 2374.07 48.6694C2372.25 52.524 2370.42 52.524 2368.6 50.5967C2364.94 48.6694 2355.82 42.8874 2355.82 42.8874C2355.82 42.8874 2364.94 83.3613 2364.94 87.216C2364.94 91.0706 2363.12 92.9979 2359.47 91.0706L2341.21 69.87C2341.21 69.87 2339.39 75.652 2337.56 77.5793C2337.56 79.5066 2335.74 81.434 2333.91 79.5066C2330.26 79.5066 2315.66 75.652 2315.66 75.652C2315.66 75.652 2321.13 94.9253 2322.96 96.8526C2322.96 98.7799 2322.96 102.635 2319.31 104.562ZM2197 4.34082H2291.92V204.783H2197V4.34082Z" fill="white"/>
<path d="M2598.61 605.582C2591.31 622.928 2576.71 628.71 2567.58 628.71C2556.63 628.71 2523.77 626.782 2523.77 536.198C2523.77 536.198 2523.77 353.102 2523.77 341.538C2523.77 281.791 2479.96 233.607 2366.78 233.607C2244.47 233.607 2242.64 297.209 2242.64 312.628C2240.82 329.974 2249.94 349.247 2280.98 349.247C2308.36 349.247 2315.66 316.482 2319.31 304.919C2322.96 291.427 2324.79 252.881 2374.08 252.881C2416.06 252.881 2441.62 291.427 2443.45 347.32C2443.45 356.956 2443.45 362.738 2443.45 368.52C2443.45 372.375 2443.45 374.302 2443.45 378.157V380.084C2439.8 399.358 2430.67 408.994 2414.24 416.704C2392.33 428.268 2328.44 437.904 2321.14 439.832C2295.58 445.613 2224.39 464.887 2226.21 543.907C2228.04 621 2301.06 647.983 2352.17 646.056C2401.46 644.128 2430.67 622.928 2443.45 611.364C2450.75 605.582 2450.75 605.582 2456.22 613.291C2463.53 621 2487.26 646.056 2543.85 646.056C2602.26 646.056 2609.57 617.146 2613.22 607.509C2615.04 601.727 2602.26 595.945 2598.61 605.582ZM2370.43 626.782C2319.31 626.782 2306.53 582.454 2306.53 559.326C2306.53 538.125 2317.49 493.797 2368.6 462.959C2368.6 462.959 2392.33 447.541 2437.97 428.268C2439.79 428.268 2441.62 428.268 2441.62 428.268C2441.62 428.268 2443.45 430.195 2443.45 432.122V434.05V435.977V516.925C2443.45 580.526 2414.24 626.782 2370.43 626.782ZM2202.48 624.855C2195.18 622.928 2149.54 628.71 2149.54 482.233C2149.54 335.756 2149.54 21.6012 2149.54 21.6012C2149.54 15.8192 2149.54 0.400598 2133.11 0.400598C2116.68 0.400598 2007.15 6.18258 1999.85 8.10991C1992.55 8.10991 1987.07 17.7466 1999.85 17.7466C2012.63 19.6739 2071.04 23.5285 2071.04 125.677C2071.04 175.788 2071.04 225.898 2071.04 262.517C2071.04 264.445 2071.04 266.372 2071.04 266.372C2071.04 270.227 2071.04 272.154 2069.22 274.081C2069.22 274.081 2069.22 274.081 2069.22 276.009C2067.39 277.936 2065.57 276.009 2060.09 272.154C2050.96 264.445 2008.98 237.462 1956.04 237.462C1870.24 237.462 1764.36 302.991 1764.36 437.904C1764.36 582.454 1861.11 651.838 1961.51 651.838C2010.8 651.838 2045.49 628.71 2058.27 621C2072.87 611.364 2071.04 613.291 2072.87 626.782C2074.7 636.419 2072.87 655.692 2098.43 653.765C2125.81 649.91 2191.53 642.201 2204.31 640.274C2217.08 634.492 2213.43 626.782 2202.48 624.855ZM1976.12 630.637C1895.8 630.637 1853.81 530.416 1853.81 434.05C1853.81 328.046 1910.4 256.735 1970.64 260.59C2049.14 266.372 2069.22 331.901 2071.04 449.468C2071.04 457.177 2071.04 464.887 2071.04 474.523C2069.22 590.163 2023.58 630.637 1976.12 630.637ZM1762.53 605.582C1755.23 622.928 1740.63 628.71 1731.5 628.71C1720.55 628.71 1687.69 626.782 1687.69 536.198C1687.69 536.198 1687.69 353.102 1687.69 341.538C1687.69 281.791 1643.88 233.607 1530.7 233.607C1408.39 233.607 1406.56 297.209 1406.56 312.628C1404.74 329.974 1413.86 349.247 1444.9 349.247C1472.28 349.247 1479.58 316.482 1483.23 304.919C1486.88 291.427 1488.71 252.881 1538 252.881C1579.98 252.881 1607.37 291.427 1607.37 349.247V351.174C1607.37 353.102 1607.37 355.029 1607.37 355.029V360.811C1607.37 362.738 1607.37 366.593 1607.37 368.52C1605.54 397.43 1598.24 407.067 1576.33 418.631C1554.43 430.195 1490.53 439.832 1483.23 441.759C1457.68 447.541 1386.48 466.814 1388.31 545.835C1390.13 622.928 1463.15 649.91 1514.27 647.983C1563.55 646.056 1592.76 624.855 1605.54 613.291C1612.84 607.509 1612.84 607.509 1618.32 615.218C1625.62 622.928 1649.35 647.983 1705.94 647.983C1764.36 647.983 1771.66 619.073 1775.31 609.436C1778.96 601.727 1768.01 595.945 1762.53 605.582ZM1536.17 626.782C1485.06 626.782 1472.28 582.454 1472.28 559.326C1472.28 538.125 1483.23 493.797 1534.35 462.959C1534.35 462.959 1558.08 447.541 1603.72 428.268C1605.54 428.268 1607.37 428.268 1607.37 428.268V430.195C1607.37 432.122 1607.37 434.05 1607.37 437.904V435.977C1607.37 435.977 1607.37 435.977 1607.37 437.904V518.852C1607.37 580.526 1578.16 626.782 1536.17 626.782ZM1360.92 624.855C1346.32 621 1320.76 603.654 1320.76 518.852V364.666C1320.76 328.046 1324.41 233.607 1187.5 233.607C1116.31 233.607 1076.15 272.154 1072.49 274.081C1067.02 279.863 1063.37 281.791 1061.54 272.154C1059.72 264.445 1056.06 252.881 1054.24 245.171C1052.41 239.389 1048.76 233.607 1035.98 235.535C1023.21 237.462 942.884 250.953 928.28 254.808C915.501 258.663 919.152 264.445 928.28 266.372C937.407 268.299 981.219 272.154 981.219 351.174C981.219 430.195 981.219 516.925 981.219 516.925C981.219 613.291 962.964 621 946.535 626.782C924.629 632.564 935.582 640.274 944.709 640.274C944.709 640.274 1107.18 640.274 1110.83 640.274C1121.78 640.274 1127.26 628.71 1105.35 624.855C1083.45 621 1063.37 607.509 1063.37 532.343C1063.37 524.634 1063.37 441.759 1063.37 426.34C1063.37 385.866 1054.24 262.517 1160.12 260.59C1234.96 258.663 1242.27 324.192 1242.27 366.593V530.416C1242.27 597.872 1224.01 619.073 1202.11 622.928C1182.02 626.782 1185.68 636.419 1196.63 636.419C1200.28 636.419 1366.4 636.419 1366.4 636.419C1375.53 640.274 1384.66 630.637 1360.92 624.855ZM917.327 605.582C910.025 622.928 895.421 628.71 886.293 628.71C875.34 628.71 842.481 626.782 842.481 536.198C842.481 536.198 842.481 353.102 842.481 341.538C842.481 281.791 798.669 233.607 685.488 233.607C563.18 233.607 561.354 297.209 561.354 312.628C559.529 329.974 568.656 349.247 599.69 349.247C627.072 349.247 634.374 316.482 638.025 304.919C641.676 291.427 643.502 252.881 692.79 252.881C734.777 252.881 760.334 291.427 762.159 347.32C762.159 356.956 762.159 362.738 762.159 368.52C762.159 372.375 762.159 376.23 760.334 378.157V380.084C756.683 399.358 747.555 408.994 731.126 416.704C709.22 428.268 645.327 437.904 638.025 439.832C612.468 445.613 541.274 464.887 543.099 543.907C544.925 621 617.945 647.983 669.059 646.056C718.347 644.128 747.555 622.928 760.334 611.364C767.636 605.582 767.636 605.582 773.112 613.291C780.414 621 804.146 646.056 860.736 646.056C919.152 646.056 926.454 617.146 930.105 607.509C933.756 601.727 920.978 595.945 917.327 605.582ZM689.139 626.782C638.025 626.782 625.247 582.454 625.247 559.326C625.247 536.198 636.2 493.797 687.314 462.959C687.314 462.959 711.045 447.541 756.683 428.268C758.508 428.268 760.334 428.268 760.334 428.268C760.334 428.268 762.159 430.195 762.159 432.122C762.159 432.122 762.159 434.05 762.159 435.977V437.904V518.852C762.159 580.526 732.951 626.782 689.139 626.782ZM513.891 459.105C495.636 520.779 460.951 621 334.992 624.855C203.556 626.782 125.059 532.343 121.408 356.956C115.932 170.006 192.603 27.3832 311.26 23.5285C444.522 21.6012 491.985 189.279 493.81 214.334C495.636 233.607 519.367 231.68 519.367 212.407C519.367 202.77 508.415 37.0198 504.764 17.7466C501.113 -1.52673 486.508 6.18259 482.857 13.8919C481.032 19.6739 484.683 8.10991 477.381 25.4559C470.079 42.8018 449.998 33.1652 442.696 31.2379C420.79 21.6012 378.804 -1.52673 311.26 0.400598C156.093 4.25526 -2.72595 125.677 0.925053 337.683C4.57606 543.907 161.569 659.547 307.609 657.62C440.871 655.692 515.716 567.035 537.622 464.887C544.924 439.832 521.193 434.05 513.891 459.105Z" fill="white"/>
</svg>
